<mxfile host="app.diagrams.net" modified="2023-11-07T12:24:09.166Z" agent="Mozilla/5.0 (X11; Linux x86_64) AppleWebKit/537.36 (KHTML, like Gecko) Chrome/118.0.0.0 Safari/537.36" etag="WurMrENfsh-ahZvqOdKR" version="22.0.8" type="device">
  <diagram id="wLx2nraHEfDCj9btGWHz" name="Page-1">
    <mxGraphModel dx="1434" dy="786" grid="1" gridSize="10" guides="1" tooltips="1" connect="1" arrows="1" fold="1" page="1" pageScale="1" pageWidth="827" pageHeight="1169" math="0" shadow="0">
      <root>
        <mxCell id="0" />
        <mxCell id="1" parent="0" />
        <mxCell id="hk00Rdq8uAhm8ICl378K-64" style="edgeStyle=none;rounded=0;orthogonalLoop=1;jettySize=auto;html=1;exitX=0;exitY=0.5;exitDx=0;exitDy=0;entryX=1;entryY=0.5;entryDx=0;entryDy=0;endArrow=none;endFill=0;" parent="1" source="hk00Rdq8uAhm8ICl378K-2" target="hk00Rdq8uAhm8ICl378K-21" edge="1">
          <mxGeometry relative="1" as="geometry" />
        </mxCell>
        <mxCell id="hk00Rdq8uAhm8ICl378K-65" style="edgeStyle=none;rounded=0;orthogonalLoop=1;jettySize=auto;html=1;exitX=0;exitY=0.5;exitDx=0;exitDy=0;entryX=1;entryY=0.5;entryDx=0;entryDy=0;endArrow=none;endFill=0;" parent="1" source="hk00Rdq8uAhm8ICl378K-2" target="hk00Rdq8uAhm8ICl378K-22" edge="1">
          <mxGeometry relative="1" as="geometry" />
        </mxCell>
        <mxCell id="hk00Rdq8uAhm8ICl378K-66" style="edgeStyle=none;rounded=0;orthogonalLoop=1;jettySize=auto;html=1;exitX=0;exitY=0.5;exitDx=0;exitDy=0;entryX=1;entryY=1;entryDx=0;entryDy=0;endArrow=none;endFill=0;" parent="1" source="hk00Rdq8uAhm8ICl378K-2" target="hk00Rdq8uAhm8ICl378K-23" edge="1">
          <mxGeometry relative="1" as="geometry" />
        </mxCell>
        <mxCell id="hk00Rdq8uAhm8ICl378K-68" style="edgeStyle=none;rounded=0;orthogonalLoop=1;jettySize=auto;html=1;exitX=0;exitY=0.5;exitDx=0;exitDy=0;endArrow=none;endFill=0;" parent="1" source="hk00Rdq8uAhm8ICl378K-2" target="hk00Rdq8uAhm8ICl378K-24" edge="1">
          <mxGeometry relative="1" as="geometry" />
        </mxCell>
        <mxCell id="hk00Rdq8uAhm8ICl378K-69" style="edgeStyle=none;rounded=0;orthogonalLoop=1;jettySize=auto;html=1;exitX=0;exitY=0.5;exitDx=0;exitDy=0;entryX=1;entryY=0.5;entryDx=0;entryDy=0;endArrow=none;endFill=0;" parent="1" source="hk00Rdq8uAhm8ICl378K-2" target="hk00Rdq8uAhm8ICl378K-28" edge="1">
          <mxGeometry relative="1" as="geometry" />
        </mxCell>
        <mxCell id="hk00Rdq8uAhm8ICl378K-70" style="edgeStyle=none;rounded=0;orthogonalLoop=1;jettySize=auto;html=1;exitX=0;exitY=0.5;exitDx=0;exitDy=0;entryX=1;entryY=0.5;entryDx=0;entryDy=0;endArrow=none;endFill=0;" parent="1" source="hk00Rdq8uAhm8ICl378K-2" target="hk00Rdq8uAhm8ICl378K-29" edge="1">
          <mxGeometry relative="1" as="geometry" />
        </mxCell>
        <mxCell id="hk00Rdq8uAhm8ICl378K-71" style="edgeStyle=none;rounded=0;orthogonalLoop=1;jettySize=auto;html=1;exitX=0;exitY=0.5;exitDx=0;exitDy=0;entryX=1;entryY=0;entryDx=0;entryDy=0;endArrow=none;endFill=0;" parent="1" source="hk00Rdq8uAhm8ICl378K-2" target="hk00Rdq8uAhm8ICl378K-31" edge="1">
          <mxGeometry relative="1" as="geometry" />
        </mxCell>
        <mxCell id="hk00Rdq8uAhm8ICl378K-72" style="edgeStyle=none;rounded=0;orthogonalLoop=1;jettySize=auto;html=1;exitX=0;exitY=0.5;exitDx=0;exitDy=0;entryX=1;entryY=0.5;entryDx=0;entryDy=0;endArrow=none;endFill=0;" parent="1" source="hk00Rdq8uAhm8ICl378K-2" target="hk00Rdq8uAhm8ICl378K-31" edge="1">
          <mxGeometry relative="1" as="geometry" />
        </mxCell>
        <mxCell id="hk00Rdq8uAhm8ICl378K-74" style="edgeStyle=none;rounded=0;orthogonalLoop=1;jettySize=auto;html=1;exitX=0;exitY=0.5;exitDx=0;exitDy=0;entryX=1;entryY=0.5;entryDx=0;entryDy=0;endArrow=none;endFill=0;" parent="1" source="hk00Rdq8uAhm8ICl378K-2" target="hk00Rdq8uAhm8ICl378K-32" edge="1">
          <mxGeometry relative="1" as="geometry" />
        </mxCell>
        <mxCell id="hk00Rdq8uAhm8ICl378K-75" style="edgeStyle=none;rounded=0;orthogonalLoop=1;jettySize=auto;html=1;exitX=0;exitY=0.5;exitDx=0;exitDy=0;entryX=1;entryY=0.5;entryDx=0;entryDy=0;endArrow=none;endFill=0;" parent="1" source="hk00Rdq8uAhm8ICl378K-2" target="hk00Rdq8uAhm8ICl378K-33" edge="1">
          <mxGeometry relative="1" as="geometry" />
        </mxCell>
        <mxCell id="hk00Rdq8uAhm8ICl378K-76" style="edgeStyle=none;rounded=0;orthogonalLoop=1;jettySize=auto;html=1;exitX=0;exitY=0.5;exitDx=0;exitDy=0;entryX=1;entryY=0;entryDx=0;entryDy=0;endArrow=none;endFill=0;" parent="1" source="hk00Rdq8uAhm8ICl378K-2" target="hk00Rdq8uAhm8ICl378K-34" edge="1">
          <mxGeometry relative="1" as="geometry" />
        </mxCell>
        <mxCell id="hk00Rdq8uAhm8ICl378K-77" style="edgeStyle=none;rounded=0;orthogonalLoop=1;jettySize=auto;html=1;exitX=0;exitY=0.5;exitDx=0;exitDy=0;entryX=1;entryY=0;entryDx=0;entryDy=0;endArrow=none;endFill=0;" parent="1" source="hk00Rdq8uAhm8ICl378K-2" target="hk00Rdq8uAhm8ICl378K-25" edge="1">
          <mxGeometry relative="1" as="geometry" />
        </mxCell>
        <mxCell id="hk00Rdq8uAhm8ICl378K-118" style="edgeStyle=orthogonalEdgeStyle;rounded=0;orthogonalLoop=1;jettySize=auto;html=1;exitX=1;exitY=0.5;exitDx=0;exitDy=0;endArrow=none;endFill=0;startArrow=ERoneToMany;startFill=0;" parent="1" source="hk00Rdq8uAhm8ICl378K-2" target="hk00Rdq8uAhm8ICl378K-113" edge="1">
          <mxGeometry relative="1" as="geometry" />
        </mxCell>
        <mxCell id="hk00Rdq8uAhm8ICl378K-120" style="edgeStyle=orthogonalEdgeStyle;rounded=0;orthogonalLoop=1;jettySize=auto;html=1;exitX=0.5;exitY=0;exitDx=0;exitDy=0;endArrow=none;endFill=0;startArrow=ERoneToMany;startFill=0;" parent="1" source="hk00Rdq8uAhm8ICl378K-2" target="hk00Rdq8uAhm8ICl378K-119" edge="1">
          <mxGeometry relative="1" as="geometry" />
        </mxCell>
        <mxCell id="hk00Rdq8uAhm8ICl378K-132" style="edgeStyle=orthogonalEdgeStyle;rounded=0;orthogonalLoop=1;jettySize=auto;html=1;exitX=0.5;exitY=1;exitDx=0;exitDy=0;startArrow=ERone;startFill=0;endArrow=none;endFill=0;" parent="1" source="hk00Rdq8uAhm8ICl378K-2" target="hk00Rdq8uAhm8ICl378K-127" edge="1">
          <mxGeometry relative="1" as="geometry" />
        </mxCell>
        <mxCell id="hk00Rdq8uAhm8ICl378K-2" value="Tutor" style="rounded=0;whiteSpace=wrap;html=1;" parent="1" vertex="1">
          <mxGeometry x="142" y="231" width="80" height="40" as="geometry" />
        </mxCell>
        <mxCell id="hk00Rdq8uAhm8ICl378K-82" style="edgeStyle=none;rounded=0;orthogonalLoop=1;jettySize=auto;html=1;exitX=0.5;exitY=0;exitDx=0;exitDy=0;entryX=0.5;entryY=1;entryDx=0;entryDy=0;endArrow=none;endFill=0;" parent="1" source="hk00Rdq8uAhm8ICl378K-3" target="hk00Rdq8uAhm8ICl378K-19" edge="1">
          <mxGeometry relative="1" as="geometry" />
        </mxCell>
        <mxCell id="hk00Rdq8uAhm8ICl378K-83" style="edgeStyle=none;rounded=0;orthogonalLoop=1;jettySize=auto;html=1;exitX=0.5;exitY=0;exitDx=0;exitDy=0;endArrow=none;endFill=0;" parent="1" source="hk00Rdq8uAhm8ICl378K-3" target="hk00Rdq8uAhm8ICl378K-20" edge="1">
          <mxGeometry relative="1" as="geometry" />
        </mxCell>
        <mxCell id="hk00Rdq8uAhm8ICl378K-124" style="edgeStyle=orthogonalEdgeStyle;rounded=0;orthogonalLoop=1;jettySize=auto;html=1;exitX=1;exitY=0.5;exitDx=0;exitDy=0;endArrow=none;endFill=0;startArrow=ERoneToMany;startFill=0;" parent="1" source="hk00Rdq8uAhm8ICl378K-3" target="hk00Rdq8uAhm8ICl378K-123" edge="1">
          <mxGeometry relative="1" as="geometry" />
        </mxCell>
        <mxCell id="hk00Rdq8uAhm8ICl378K-3" value="Area" style="rounded=0;whiteSpace=wrap;html=1;" parent="1" vertex="1">
          <mxGeometry x="242" y="93" width="80" height="40" as="geometry" />
        </mxCell>
        <mxCell id="hk00Rdq8uAhm8ICl378K-80" style="edgeStyle=none;rounded=0;orthogonalLoop=1;jettySize=auto;html=1;exitX=0.5;exitY=0;exitDx=0;exitDy=0;endArrow=none;endFill=0;" parent="1" source="hk00Rdq8uAhm8ICl378K-4" target="hk00Rdq8uAhm8ICl378K-12" edge="1">
          <mxGeometry relative="1" as="geometry" />
        </mxCell>
        <mxCell id="hk00Rdq8uAhm8ICl378K-81" style="edgeStyle=none;rounded=0;orthogonalLoop=1;jettySize=auto;html=1;exitX=0.5;exitY=0;exitDx=0;exitDy=0;endArrow=none;endFill=0;" parent="1" source="hk00Rdq8uAhm8ICl378K-4" target="hk00Rdq8uAhm8ICl378K-13" edge="1">
          <mxGeometry relative="1" as="geometry" />
        </mxCell>
        <mxCell id="hk00Rdq8uAhm8ICl378K-4" value="City" style="rounded=0;whiteSpace=wrap;html=1;" parent="1" vertex="1">
          <mxGeometry x="462" y="74" width="80" height="40" as="geometry" />
        </mxCell>
        <mxCell id="hk00Rdq8uAhm8ICl378K-78" style="edgeStyle=none;rounded=0;orthogonalLoop=1;jettySize=auto;html=1;exitX=0.5;exitY=0;exitDx=0;exitDy=0;endArrow=none;endFill=0;" parent="1" source="hk00Rdq8uAhm8ICl378K-5" target="hk00Rdq8uAhm8ICl378K-10" edge="1">
          <mxGeometry relative="1" as="geometry" />
        </mxCell>
        <mxCell id="hk00Rdq8uAhm8ICl378K-79" style="edgeStyle=none;rounded=0;orthogonalLoop=1;jettySize=auto;html=1;exitX=0.5;exitY=0;exitDx=0;exitDy=0;endArrow=none;endFill=0;" parent="1" source="hk00Rdq8uAhm8ICl378K-5" target="hk00Rdq8uAhm8ICl378K-11" edge="1">
          <mxGeometry relative="1" as="geometry" />
        </mxCell>
        <mxCell id="hk00Rdq8uAhm8ICl378K-5" value="University&amp;nbsp;" style="rounded=0;whiteSpace=wrap;html=1;" parent="1" vertex="1">
          <mxGeometry x="103" y="72" width="80" height="40" as="geometry" />
        </mxCell>
        <mxCell id="hk00Rdq8uAhm8ICl378K-85" style="edgeStyle=none;rounded=0;orthogonalLoop=1;jettySize=auto;html=1;exitX=1;exitY=0.5;exitDx=0;exitDy=0;entryX=0;entryY=0.5;entryDx=0;entryDy=0;" parent="1" source="hk00Rdq8uAhm8ICl378K-6" target="hk00Rdq8uAhm8ICl378K-15" edge="1">
          <mxGeometry relative="1" as="geometry" />
        </mxCell>
        <mxCell id="hk00Rdq8uAhm8ICl378K-86" style="edgeStyle=none;rounded=0;orthogonalLoop=1;jettySize=auto;html=1;exitX=1;exitY=0.5;exitDx=0;exitDy=0;" parent="1" source="hk00Rdq8uAhm8ICl378K-6" target="hk00Rdq8uAhm8ICl378K-16" edge="1">
          <mxGeometry relative="1" as="geometry" />
        </mxCell>
        <mxCell id="hk00Rdq8uAhm8ICl378K-87" style="edgeStyle=none;rounded=0;orthogonalLoop=1;jettySize=auto;html=1;exitX=1;exitY=0.5;exitDx=0;exitDy=0;" parent="1" source="hk00Rdq8uAhm8ICl378K-6" target="hk00Rdq8uAhm8ICl378K-17" edge="1">
          <mxGeometry relative="1" as="geometry" />
        </mxCell>
        <mxCell id="hk00Rdq8uAhm8ICl378K-88" style="edgeStyle=none;rounded=0;orthogonalLoop=1;jettySize=auto;html=1;exitX=1;exitY=0.5;exitDx=0;exitDy=0;entryX=0;entryY=0;entryDx=0;entryDy=0;" parent="1" source="hk00Rdq8uAhm8ICl378K-6" target="hk00Rdq8uAhm8ICl378K-18" edge="1">
          <mxGeometry relative="1" as="geometry" />
        </mxCell>
        <mxCell id="hk00Rdq8uAhm8ICl378K-115" style="edgeStyle=none;rounded=0;orthogonalLoop=1;jettySize=auto;html=1;exitX=0;exitY=0.5;exitDx=0;exitDy=0;endArrow=none;endFill=0;startArrow=ERoneToMany;startFill=0;" parent="1" source="hk00Rdq8uAhm8ICl378K-6" target="hk00Rdq8uAhm8ICl378K-114" edge="1">
          <mxGeometry relative="1" as="geometry" />
        </mxCell>
        <mxCell id="hk00Rdq8uAhm8ICl378K-128" style="edgeStyle=orthogonalEdgeStyle;rounded=0;orthogonalLoop=1;jettySize=auto;html=1;exitX=0.5;exitY=1;exitDx=0;exitDy=0;entryX=0.5;entryY=0;entryDx=0;entryDy=0;startArrow=ERone;startFill=0;endArrow=none;endFill=0;" parent="1" source="hk00Rdq8uAhm8ICl378K-6" target="hk00Rdq8uAhm8ICl378K-126" edge="1">
          <mxGeometry relative="1" as="geometry" />
        </mxCell>
        <mxCell id="hk00Rdq8uAhm8ICl378K-6" value="Student" style="rounded=0;whiteSpace=wrap;html=1;" parent="1" vertex="1">
          <mxGeometry x="426" y="152" width="80" height="40" as="geometry" />
        </mxCell>
        <mxCell id="hk00Rdq8uAhm8ICl378K-108" style="edgeStyle=none;rounded=0;orthogonalLoop=1;jettySize=auto;html=1;exitX=0;exitY=0.5;exitDx=0;exitDy=0;entryX=1;entryY=0.5;entryDx=0;entryDy=0;endArrow=none;endFill=0;" parent="1" source="hk00Rdq8uAhm8ICl378K-7" target="hk00Rdq8uAhm8ICl378K-41" edge="1">
          <mxGeometry relative="1" as="geometry" />
        </mxCell>
        <mxCell id="hk00Rdq8uAhm8ICl378K-109" style="edgeStyle=none;rounded=0;orthogonalLoop=1;jettySize=auto;html=1;exitX=0;exitY=0.5;exitDx=0;exitDy=0;endArrow=none;endFill=0;" parent="1" source="hk00Rdq8uAhm8ICl378K-7" target="hk00Rdq8uAhm8ICl378K-42" edge="1">
          <mxGeometry relative="1" as="geometry" />
        </mxCell>
        <mxCell id="hk00Rdq8uAhm8ICl378K-110" style="edgeStyle=none;rounded=0;orthogonalLoop=1;jettySize=auto;html=1;endArrow=none;endFill=0;" parent="1" source="hk00Rdq8uAhm8ICl378K-7" target="hk00Rdq8uAhm8ICl378K-43" edge="1">
          <mxGeometry relative="1" as="geometry" />
        </mxCell>
        <mxCell id="hk00Rdq8uAhm8ICl378K-111" style="edgeStyle=none;rounded=0;orthogonalLoop=1;jettySize=auto;html=1;endArrow=none;endFill=0;" parent="1" source="hk00Rdq8uAhm8ICl378K-7" target="hk00Rdq8uAhm8ICl378K-44" edge="1">
          <mxGeometry relative="1" as="geometry" />
        </mxCell>
        <mxCell id="hk00Rdq8uAhm8ICl378K-7" value="User" style="rounded=0;whiteSpace=wrap;html=1;" parent="1" vertex="1">
          <mxGeometry x="172" y="967" width="80" height="40" as="geometry" />
        </mxCell>
        <mxCell id="hk00Rdq8uAhm8ICl378K-89" style="edgeStyle=none;rounded=0;orthogonalLoop=1;jettySize=auto;html=1;exitX=1;exitY=0.5;exitDx=0;exitDy=0;entryX=0;entryY=1;entryDx=0;entryDy=0;endArrow=none;endFill=0;" parent="1" source="hk00Rdq8uAhm8ICl378K-8" target="hk00Rdq8uAhm8ICl378K-47" edge="1">
          <mxGeometry relative="1" as="geometry" />
        </mxCell>
        <mxCell id="hk00Rdq8uAhm8ICl378K-91" style="edgeStyle=none;rounded=0;orthogonalLoop=1;jettySize=auto;html=1;exitX=1;exitY=0.5;exitDx=0;exitDy=0;entryX=0;entryY=1;entryDx=0;entryDy=0;endArrow=none;endFill=0;" parent="1" source="hk00Rdq8uAhm8ICl378K-8" target="hk00Rdq8uAhm8ICl378K-49" edge="1">
          <mxGeometry relative="1" as="geometry" />
        </mxCell>
        <mxCell id="hk00Rdq8uAhm8ICl378K-92" style="edgeStyle=none;rounded=0;orthogonalLoop=1;jettySize=auto;html=1;exitX=1;exitY=0.5;exitDx=0;exitDy=0;endArrow=none;endFill=0;" parent="1" source="hk00Rdq8uAhm8ICl378K-8" target="hk00Rdq8uAhm8ICl378K-50" edge="1">
          <mxGeometry relative="1" as="geometry" />
        </mxCell>
        <mxCell id="hk00Rdq8uAhm8ICl378K-93" style="edgeStyle=none;rounded=0;orthogonalLoop=1;jettySize=auto;html=1;exitX=1;exitY=0.5;exitDx=0;exitDy=0;endArrow=none;endFill=0;" parent="1" source="hk00Rdq8uAhm8ICl378K-8" target="hk00Rdq8uAhm8ICl378K-52" edge="1">
          <mxGeometry relative="1" as="geometry" />
        </mxCell>
        <mxCell id="hk00Rdq8uAhm8ICl378K-94" style="edgeStyle=none;rounded=0;orthogonalLoop=1;jettySize=auto;html=1;exitX=1;exitY=0.5;exitDx=0;exitDy=0;entryX=0;entryY=0.5;entryDx=0;entryDy=0;endArrow=none;endFill=0;" parent="1" source="hk00Rdq8uAhm8ICl378K-8" target="hk00Rdq8uAhm8ICl378K-53" edge="1">
          <mxGeometry relative="1" as="geometry" />
        </mxCell>
        <mxCell id="hk00Rdq8uAhm8ICl378K-95" style="edgeStyle=none;rounded=0;orthogonalLoop=1;jettySize=auto;html=1;exitX=1;exitY=0.5;exitDx=0;exitDy=0;entryX=0;entryY=0.5;entryDx=0;entryDy=0;endArrow=none;endFill=0;" parent="1" source="hk00Rdq8uAhm8ICl378K-8" target="hk00Rdq8uAhm8ICl378K-54" edge="1">
          <mxGeometry relative="1" as="geometry" />
        </mxCell>
        <mxCell id="hk00Rdq8uAhm8ICl378K-96" style="edgeStyle=none;rounded=0;orthogonalLoop=1;jettySize=auto;html=1;exitX=1;exitY=0.5;exitDx=0;exitDy=0;entryX=0;entryY=0.5;entryDx=0;entryDy=0;endArrow=none;endFill=0;" parent="1" source="hk00Rdq8uAhm8ICl378K-8" target="hk00Rdq8uAhm8ICl378K-55" edge="1">
          <mxGeometry relative="1" as="geometry" />
        </mxCell>
        <mxCell id="hk00Rdq8uAhm8ICl378K-97" style="edgeStyle=none;rounded=0;orthogonalLoop=1;jettySize=auto;html=1;exitX=1;exitY=0.5;exitDx=0;exitDy=0;entryX=0;entryY=0.5;entryDx=0;entryDy=0;endArrow=none;endFill=0;" parent="1" source="hk00Rdq8uAhm8ICl378K-8" target="hk00Rdq8uAhm8ICl378K-56" edge="1">
          <mxGeometry relative="1" as="geometry" />
        </mxCell>
        <mxCell id="hk00Rdq8uAhm8ICl378K-98" style="edgeStyle=none;rounded=0;orthogonalLoop=1;jettySize=auto;html=1;exitX=1;exitY=0.5;exitDx=0;exitDy=0;entryX=0;entryY=0.5;entryDx=0;entryDy=0;endArrow=none;endFill=0;" parent="1" source="hk00Rdq8uAhm8ICl378K-8" target="hk00Rdq8uAhm8ICl378K-57" edge="1">
          <mxGeometry relative="1" as="geometry" />
        </mxCell>
        <mxCell id="hk00Rdq8uAhm8ICl378K-99" style="edgeStyle=none;rounded=0;orthogonalLoop=1;jettySize=auto;html=1;exitX=1;exitY=0.5;exitDx=0;exitDy=0;entryX=0;entryY=0.5;entryDx=0;entryDy=0;endArrow=none;endFill=0;" parent="1" source="hk00Rdq8uAhm8ICl378K-8" target="hk00Rdq8uAhm8ICl378K-58" edge="1">
          <mxGeometry relative="1" as="geometry" />
        </mxCell>
        <mxCell id="hk00Rdq8uAhm8ICl378K-100" style="edgeStyle=none;rounded=0;orthogonalLoop=1;jettySize=auto;html=1;exitX=1;exitY=0.5;exitDx=0;exitDy=0;entryX=0;entryY=0.5;entryDx=0;entryDy=0;endArrow=none;endFill=0;" parent="1" source="hk00Rdq8uAhm8ICl378K-8" target="hk00Rdq8uAhm8ICl378K-59" edge="1">
          <mxGeometry relative="1" as="geometry" />
        </mxCell>
        <mxCell id="hk00Rdq8uAhm8ICl378K-101" style="edgeStyle=none;rounded=0;orthogonalLoop=1;jettySize=auto;html=1;exitX=1;exitY=0.5;exitDx=0;exitDy=0;entryX=0;entryY=0.5;entryDx=0;entryDy=0;endArrow=none;endFill=0;" parent="1" source="hk00Rdq8uAhm8ICl378K-8" target="hk00Rdq8uAhm8ICl378K-60" edge="1">
          <mxGeometry relative="1" as="geometry" />
        </mxCell>
        <mxCell id="hk00Rdq8uAhm8ICl378K-8" value="TutorRequest" style="rounded=0;whiteSpace=wrap;html=1;" parent="1" vertex="1">
          <mxGeometry x="355" y="373" width="80" height="40" as="geometry" />
        </mxCell>
        <mxCell id="hk00Rdq8uAhm8ICl378K-103" style="edgeStyle=none;rounded=0;orthogonalLoop=1;jettySize=auto;html=1;exitX=0.5;exitY=1;exitDx=0;exitDy=0;entryX=1;entryY=0;entryDx=0;entryDy=0;endArrow=none;endFill=0;" parent="1" source="hk00Rdq8uAhm8ICl378K-9" target="hk00Rdq8uAhm8ICl378K-38" edge="1">
          <mxGeometry relative="1" as="geometry" />
        </mxCell>
        <mxCell id="hk00Rdq8uAhm8ICl378K-104" style="edgeStyle=none;rounded=0;orthogonalLoop=1;jettySize=auto;html=1;exitX=0.5;exitY=1;exitDx=0;exitDy=0;endArrow=none;endFill=0;" parent="1" source="hk00Rdq8uAhm8ICl378K-9" target="hk00Rdq8uAhm8ICl378K-35" edge="1">
          <mxGeometry relative="1" as="geometry" />
        </mxCell>
        <mxCell id="hk00Rdq8uAhm8ICl378K-106" style="edgeStyle=none;rounded=0;orthogonalLoop=1;jettySize=auto;html=1;exitX=0.5;exitY=1;exitDx=0;exitDy=0;entryX=0.5;entryY=0;entryDx=0;entryDy=0;endArrow=none;endFill=0;" parent="1" source="hk00Rdq8uAhm8ICl378K-9" target="hk00Rdq8uAhm8ICl378K-36" edge="1">
          <mxGeometry relative="1" as="geometry" />
        </mxCell>
        <mxCell id="hk00Rdq8uAhm8ICl378K-9" value="Response" style="rounded=0;whiteSpace=wrap;html=1;" parent="1" vertex="1">
          <mxGeometry x="152" y="387" width="80" height="40" as="geometry" />
        </mxCell>
        <mxCell id="hk00Rdq8uAhm8ICl378K-10" value="&lt;u&gt;id&lt;/u&gt;" style="ellipse;whiteSpace=wrap;html=1;" parent="1" vertex="1">
          <mxGeometry x="63" y="12" width="70" height="40" as="geometry" />
        </mxCell>
        <mxCell id="hk00Rdq8uAhm8ICl378K-11" value="&lt;u&gt;name&lt;/u&gt;" style="ellipse;whiteSpace=wrap;html=1;" parent="1" vertex="1">
          <mxGeometry x="138" y="12" width="70" height="40" as="geometry" />
        </mxCell>
        <mxCell id="hk00Rdq8uAhm8ICl378K-12" value="&lt;u&gt;id&lt;/u&gt;" style="ellipse;whiteSpace=wrap;html=1;" parent="1" vertex="1">
          <mxGeometry x="427" y="14" width="70" height="40" as="geometry" />
        </mxCell>
        <mxCell id="hk00Rdq8uAhm8ICl378K-13" value="&lt;u&gt;name&lt;/u&gt;" style="ellipse;whiteSpace=wrap;html=1;" parent="1" vertex="1">
          <mxGeometry x="502" y="14" width="70" height="40" as="geometry" />
        </mxCell>
        <mxCell id="hk00Rdq8uAhm8ICl378K-14" value="&lt;u&gt;id&lt;/u&gt;" style="ellipse;whiteSpace=wrap;html=1;" parent="1" vertex="1">
          <mxGeometry x="546" y="97" width="70" height="30" as="geometry" />
        </mxCell>
        <mxCell id="hk00Rdq8uAhm8ICl378K-15" value="name" style="ellipse;whiteSpace=wrap;html=1;" parent="1" vertex="1">
          <mxGeometry x="556" y="127" width="70" height="30" as="geometry" />
        </mxCell>
        <mxCell id="hk00Rdq8uAhm8ICl378K-16" value="image" style="ellipse;whiteSpace=wrap;html=1;" parent="1" vertex="1">
          <mxGeometry x="562" y="157" width="70" height="30" as="geometry" />
        </mxCell>
        <mxCell id="hk00Rdq8uAhm8ICl378K-17" value="phone" style="ellipse;whiteSpace=wrap;html=1;" parent="1" vertex="1">
          <mxGeometry x="562" y="187" width="70" height="30" as="geometry" />
        </mxCell>
        <mxCell id="hk00Rdq8uAhm8ICl378K-18" value="is_onboarded" style="ellipse;whiteSpace=wrap;html=1;" parent="1" vertex="1">
          <mxGeometry x="531" y="217" width="100" height="30" as="geometry" />
        </mxCell>
        <mxCell id="hk00Rdq8uAhm8ICl378K-19" value="&lt;u&gt;id&lt;/u&gt;" style="ellipse;whiteSpace=wrap;html=1;" parent="1" vertex="1">
          <mxGeometry x="210" y="30" width="70" height="40" as="geometry" />
        </mxCell>
        <mxCell id="hk00Rdq8uAhm8ICl378K-20" value="&lt;u&gt;name&lt;/u&gt;" style="ellipse;whiteSpace=wrap;html=1;" parent="1" vertex="1">
          <mxGeometry x="285" y="30" width="70" height="40" as="geometry" />
        </mxCell>
        <mxCell id="hk00Rdq8uAhm8ICl378K-21" value="&lt;u&gt;id&lt;/u&gt;" style="ellipse;whiteSpace=wrap;html=1;" parent="1" vertex="1">
          <mxGeometry x="27" y="133" width="70" height="30" as="geometry" />
        </mxCell>
        <mxCell id="hk00Rdq8uAhm8ICl378K-22" value="name" style="ellipse;whiteSpace=wrap;html=1;" parent="1" vertex="1">
          <mxGeometry x="17" y="157" width="70" height="30" as="geometry" />
        </mxCell>
        <mxCell id="hk00Rdq8uAhm8ICl378K-23" value="image" style="ellipse;whiteSpace=wrap;html=1;" parent="1" vertex="1">
          <mxGeometry x="12" y="181" width="70" height="30" as="geometry" />
        </mxCell>
        <mxCell id="hk00Rdq8uAhm8ICl378K-24" value="bio" style="ellipse;whiteSpace=wrap;html=1;" parent="1" vertex="1">
          <mxGeometry x="2" y="208" width="70" height="30" as="geometry" />
        </mxCell>
        <mxCell id="hk00Rdq8uAhm8ICl378K-25" value="is_onboarded" style="ellipse;whiteSpace=wrap;html=1;" parent="1" vertex="1">
          <mxGeometry x="38" y="370" width="100" height="30" as="geometry" />
        </mxCell>
        <mxCell id="hk00Rdq8uAhm8ICl378K-28" value="birth_date" style="ellipse;whiteSpace=wrap;html=1;" parent="1" vertex="1">
          <mxGeometry x="2" y="230" width="70" height="30" as="geometry" />
        </mxCell>
        <mxCell id="hk00Rdq8uAhm8ICl378K-29" value="phone" style="ellipse;whiteSpace=wrap;html=1;" parent="1" vertex="1">
          <mxGeometry x="12" y="248" width="70" height="30" as="geometry" />
        </mxCell>
        <mxCell id="hk00Rdq8uAhm8ICl378K-31" value="department" style="ellipse;whiteSpace=wrap;html=1;" parent="1" vertex="1">
          <mxGeometry x="12" y="271" width="70" height="30" as="geometry" />
        </mxCell>
        <mxCell id="hk00Rdq8uAhm8ICl378K-32" value="subject" style="ellipse;whiteSpace=wrap;html=1;" parent="1" vertex="1">
          <mxGeometry x="17" y="296" width="70" height="30" as="geometry" />
        </mxCell>
        <mxCell id="hk00Rdq8uAhm8ICl378K-33" value="degree" style="ellipse;whiteSpace=wrap;html=1;" parent="1" vertex="1">
          <mxGeometry x="27" y="320" width="70" height="30" as="geometry" />
        </mxCell>
        <mxCell id="hk00Rdq8uAhm8ICl378K-34" value="experience" style="ellipse;whiteSpace=wrap;html=1;" parent="1" vertex="1">
          <mxGeometry x="38" y="343" width="70" height="30" as="geometry" />
        </mxCell>
        <mxCell id="hk00Rdq8uAhm8ICl378K-35" value="&lt;u&gt;id&lt;/u&gt;" style="ellipse;whiteSpace=wrap;html=1;" parent="1" vertex="1">
          <mxGeometry x="232" y="479.5" width="70" height="30" as="geometry" />
        </mxCell>
        <mxCell id="hk00Rdq8uAhm8ICl378K-36" value="message" style="ellipse;whiteSpace=wrap;html=1;" parent="1" vertex="1">
          <mxGeometry x="189" y="499" width="70" height="30" as="geometry" />
        </mxCell>
        <mxCell id="hk00Rdq8uAhm8ICl378K-37" value="date" style="ellipse;whiteSpace=wrap;html=1;" parent="1" vertex="1">
          <mxGeometry x="131" y="504" width="70" height="30" as="geometry" />
        </mxCell>
        <mxCell id="hk00Rdq8uAhm8ICl378K-38" value="status" style="ellipse;whiteSpace=wrap;html=1;" parent="1" vertex="1">
          <mxGeometry x="82" y="479.5" width="70" height="30" as="geometry" />
        </mxCell>
        <mxCell id="hk00Rdq8uAhm8ICl378K-40" value="&lt;u&gt;id&lt;/u&gt;" style="ellipse;whiteSpace=wrap;html=1;" parent="1" vertex="1">
          <mxGeometry x="63" y="910" width="70" height="30" as="geometry" />
        </mxCell>
        <mxCell id="hk00Rdq8uAhm8ICl378K-41" value="first_name" style="ellipse;whiteSpace=wrap;html=1;" parent="1" vertex="1">
          <mxGeometry x="53" y="934" width="70" height="30" as="geometry" />
        </mxCell>
        <mxCell id="hk00Rdq8uAhm8ICl378K-42" value="last_name" style="ellipse;whiteSpace=wrap;html=1;" parent="1" vertex="1">
          <mxGeometry x="48" y="958" width="70" height="30" as="geometry" />
        </mxCell>
        <mxCell id="hk00Rdq8uAhm8ICl378K-43" value="username" style="ellipse;whiteSpace=wrap;html=1;" parent="1" vertex="1">
          <mxGeometry x="38" y="985" width="70" height="30" as="geometry" />
        </mxCell>
        <mxCell id="hk00Rdq8uAhm8ICl378K-44" value="email" style="ellipse;whiteSpace=wrap;html=1;" parent="1" vertex="1">
          <mxGeometry x="38" y="1007" width="70" height="30" as="geometry" />
        </mxCell>
        <mxCell id="hk00Rdq8uAhm8ICl378K-45" value="password" style="ellipse;whiteSpace=wrap;html=1;" parent="1" vertex="1">
          <mxGeometry x="48" y="1033" width="70" height="30" as="geometry" />
        </mxCell>
        <mxCell id="hk00Rdq8uAhm8ICl378K-47" value="&lt;u&gt;id&lt;/u&gt;" style="ellipse;whiteSpace=wrap;html=1;" parent="1" vertex="1">
          <mxGeometry x="470" y="238" width="70" height="30" as="geometry" />
        </mxCell>
        <mxCell id="hk00Rdq8uAhm8ICl378K-48" value="title" style="ellipse;whiteSpace=wrap;html=1;" parent="1" vertex="1">
          <mxGeometry x="492" y="260" width="70" height="30" as="geometry" />
        </mxCell>
        <mxCell id="hk00Rdq8uAhm8ICl378K-49" value="message" style="ellipse;whiteSpace=wrap;html=1;" parent="1" vertex="1">
          <mxGeometry x="512" y="278" width="70" height="30" as="geometry" />
        </mxCell>
        <mxCell id="hk00Rdq8uAhm8ICl378K-50" value="medium" style="ellipse;whiteSpace=wrap;html=1;" parent="1" vertex="1">
          <mxGeometry x="522" y="301" width="70" height="30" as="geometry" />
        </mxCell>
        <mxCell id="hk00Rdq8uAhm8ICl378K-52" value="version" style="ellipse;whiteSpace=wrap;html=1;" parent="1" vertex="1">
          <mxGeometry x="531" y="325" width="70" height="30" as="geometry" />
        </mxCell>
        <mxCell id="hk00Rdq8uAhm8ICl378K-53" value="students_gender" style="ellipse;whiteSpace=wrap;html=1;" parent="1" vertex="1">
          <mxGeometry x="540" y="350" width="110" height="30" as="geometry" />
        </mxCell>
        <mxCell id="hk00Rdq8uAhm8ICl378K-54" value="tutors_gender" style="ellipse;whiteSpace=wrap;html=1;" parent="1" vertex="1">
          <mxGeometry x="540" y="373" width="90" height="30" as="geometry" />
        </mxCell>
        <mxCell id="hk00Rdq8uAhm8ICl378K-55" value="institute" style="ellipse;whiteSpace=wrap;html=1;" parent="1" vertex="1">
          <mxGeometry x="546" y="397.5" width="70" height="30" as="geometry" />
        </mxCell>
        <mxCell id="hk00Rdq8uAhm8ICl378K-56" value="class" style="ellipse;whiteSpace=wrap;html=1;" parent="1" vertex="1">
          <mxGeometry x="540" y="421.5" width="70" height="30" as="geometry" />
        </mxCell>
        <mxCell id="hk00Rdq8uAhm8ICl378K-57" value="total_students" style="ellipse;whiteSpace=wrap;html=1;" parent="1" vertex="1">
          <mxGeometry x="540" y="445.5" width="90" height="30" as="geometry" />
        </mxCell>
        <mxCell id="hk00Rdq8uAhm8ICl378K-58" value="subject" style="ellipse;whiteSpace=wrap;html=1;" parent="1" vertex="1">
          <mxGeometry x="550" y="472.5" width="70" height="30" as="geometry" />
        </mxCell>
        <mxCell id="hk00Rdq8uAhm8ICl378K-59" value="days" style="ellipse;whiteSpace=wrap;html=1;" parent="1" vertex="1">
          <mxGeometry x="546" y="497.5" width="70" height="30" as="geometry" />
        </mxCell>
        <mxCell id="hk00Rdq8uAhm8ICl378K-60" value="salary" style="ellipse;whiteSpace=wrap;html=1;" parent="1" vertex="1">
          <mxGeometry x="531" y="519.5" width="70" height="30" as="geometry" />
        </mxCell>
        <mxCell id="hk00Rdq8uAhm8ICl378K-61" value="status" style="ellipse;whiteSpace=wrap;html=1;" parent="1" vertex="1">
          <mxGeometry x="512" y="549.5" width="70" height="30" as="geometry" />
        </mxCell>
        <mxCell id="hk00Rdq8uAhm8ICl378K-84" style="edgeStyle=none;rounded=0;orthogonalLoop=1;jettySize=auto;html=1;exitX=1;exitY=0.5;exitDx=0;exitDy=0;entryX=0.057;entryY=0.767;entryDx=0;entryDy=0;entryPerimeter=0;" parent="1" source="hk00Rdq8uAhm8ICl378K-6" target="hk00Rdq8uAhm8ICl378K-14" edge="1">
          <mxGeometry relative="1" as="geometry" />
        </mxCell>
        <mxCell id="hk00Rdq8uAhm8ICl378K-90" style="edgeStyle=none;rounded=0;orthogonalLoop=1;jettySize=auto;html=1;exitX=1;exitY=0.5;exitDx=0;exitDy=0;entryX=0.114;entryY=0.667;entryDx=0;entryDy=0;entryPerimeter=0;endArrow=none;endFill=0;" parent="1" source="hk00Rdq8uAhm8ICl378K-8" target="hk00Rdq8uAhm8ICl378K-48" edge="1">
          <mxGeometry relative="1" as="geometry" />
        </mxCell>
        <mxCell id="hk00Rdq8uAhm8ICl378K-102" style="edgeStyle=none;rounded=0;orthogonalLoop=1;jettySize=auto;html=1;exitX=1;exitY=0.5;exitDx=0;exitDy=0;entryX=0.014;entryY=0.317;entryDx=0;entryDy=0;entryPerimeter=0;endArrow=none;endFill=0;" parent="1" source="hk00Rdq8uAhm8ICl378K-8" target="hk00Rdq8uAhm8ICl378K-61" edge="1">
          <mxGeometry relative="1" as="geometry" />
        </mxCell>
        <mxCell id="hk00Rdq8uAhm8ICl378K-105" style="edgeStyle=none;rounded=0;orthogonalLoop=1;jettySize=auto;html=1;exitX=0.5;exitY=1;exitDx=0;exitDy=0;entryX=0.671;entryY=0.083;entryDx=0;entryDy=0;entryPerimeter=0;endArrow=none;endFill=0;" parent="1" source="hk00Rdq8uAhm8ICl378K-9" target="hk00Rdq8uAhm8ICl378K-37" edge="1">
          <mxGeometry relative="1" as="geometry" />
        </mxCell>
        <mxCell id="hk00Rdq8uAhm8ICl378K-107" style="edgeStyle=none;rounded=0;orthogonalLoop=1;jettySize=auto;html=1;exitX=0;exitY=0.5;exitDx=0;exitDy=0;entryX=1;entryY=0.783;entryDx=0;entryDy=0;entryPerimeter=0;endArrow=none;endFill=0;" parent="1" source="hk00Rdq8uAhm8ICl378K-7" target="hk00Rdq8uAhm8ICl378K-40" edge="1">
          <mxGeometry relative="1" as="geometry" />
        </mxCell>
        <mxCell id="hk00Rdq8uAhm8ICl378K-112" style="edgeStyle=none;rounded=0;orthogonalLoop=1;jettySize=auto;html=1;entryX=0.971;entryY=0.283;entryDx=0;entryDy=0;entryPerimeter=0;endArrow=none;endFill=0;" parent="1" source="hk00Rdq8uAhm8ICl378K-7" target="hk00Rdq8uAhm8ICl378K-45" edge="1">
          <mxGeometry relative="1" as="geometry" />
        </mxCell>
        <mxCell id="hk00Rdq8uAhm8ICl378K-117" style="edgeStyle=orthogonalEdgeStyle;rounded=0;orthogonalLoop=1;jettySize=auto;html=1;exitX=0.5;exitY=0;exitDx=0;exitDy=0;endArrow=ERone;endFill=0;" parent="1" source="hk00Rdq8uAhm8ICl378K-113" target="hk00Rdq8uAhm8ICl378K-3" edge="1">
          <mxGeometry relative="1" as="geometry" />
        </mxCell>
        <mxCell id="hk00Rdq8uAhm8ICl378K-113" value="is_from" style="rhombus;whiteSpace=wrap;html=1;" parent="1" vertex="1">
          <mxGeometry x="260" y="231" width="70" height="40" as="geometry" />
        </mxCell>
        <mxCell id="hk00Rdq8uAhm8ICl378K-116" style="edgeStyle=orthogonalEdgeStyle;rounded=0;orthogonalLoop=1;jettySize=auto;html=1;exitX=0;exitY=0.5;exitDx=0;exitDy=0;endArrow=ERone;endFill=0;" parent="1" source="hk00Rdq8uAhm8ICl378K-114" target="hk00Rdq8uAhm8ICl378K-3" edge="1">
          <mxGeometry relative="1" as="geometry" />
        </mxCell>
        <mxCell id="hk00Rdq8uAhm8ICl378K-114" value="is_from" style="rhombus;whiteSpace=wrap;html=1;" parent="1" vertex="1">
          <mxGeometry x="322" y="152" width="70" height="40" as="geometry" />
        </mxCell>
        <mxCell id="hk00Rdq8uAhm8ICl378K-122" style="edgeStyle=orthogonalEdgeStyle;rounded=0;orthogonalLoop=1;jettySize=auto;html=1;exitX=0.5;exitY=0;exitDx=0;exitDy=0;entryX=0.5;entryY=1;entryDx=0;entryDy=0;endArrow=ERone;endFill=0;" parent="1" source="hk00Rdq8uAhm8ICl378K-119" target="hk00Rdq8uAhm8ICl378K-5" edge="1">
          <mxGeometry relative="1" as="geometry" />
        </mxCell>
        <mxCell id="hk00Rdq8uAhm8ICl378K-119" value="is_from" style="rhombus;whiteSpace=wrap;html=1;" parent="1" vertex="1">
          <mxGeometry x="147" y="147" width="70" height="40" as="geometry" />
        </mxCell>
        <mxCell id="hk00Rdq8uAhm8ICl378K-125" style="edgeStyle=orthogonalEdgeStyle;rounded=0;orthogonalLoop=1;jettySize=auto;html=1;exitX=1;exitY=0.5;exitDx=0;exitDy=0;endArrow=ERone;endFill=0;" parent="1" source="hk00Rdq8uAhm8ICl378K-123" target="hk00Rdq8uAhm8ICl378K-4" edge="1">
          <mxGeometry relative="1" as="geometry" />
        </mxCell>
        <mxCell id="hk00Rdq8uAhm8ICl378K-123" value="is_from" style="rhombus;whiteSpace=wrap;html=1;" parent="1" vertex="1">
          <mxGeometry x="357" y="87" width="70" height="40" as="geometry" />
        </mxCell>
        <mxCell id="hk00Rdq8uAhm8ICl378K-129" style="edgeStyle=orthogonalEdgeStyle;rounded=0;orthogonalLoop=1;jettySize=auto;html=1;exitX=0.5;exitY=1;exitDx=0;exitDy=0;endArrow=ERoneToMany;endFill=0;" parent="1" source="hk00Rdq8uAhm8ICl378K-126" target="hk00Rdq8uAhm8ICl378K-8" edge="1">
          <mxGeometry relative="1" as="geometry" />
        </mxCell>
        <mxCell id="hk00Rdq8uAhm8ICl378K-126" value="created" style="rhombus;whiteSpace=wrap;html=1;" parent="1" vertex="1">
          <mxGeometry x="344" y="266" width="70" height="40" as="geometry" />
        </mxCell>
        <mxCell id="hk00Rdq8uAhm8ICl378K-134" style="edgeStyle=orthogonalEdgeStyle;rounded=0;orthogonalLoop=1;jettySize=auto;html=1;exitX=0.5;exitY=1;exitDx=0;exitDy=0;endArrow=ERoneToMany;endFill=0;" parent="1" source="hk00Rdq8uAhm8ICl378K-127" target="hk00Rdq8uAhm8ICl378K-9" edge="1">
          <mxGeometry relative="1" as="geometry" />
        </mxCell>
        <mxCell id="hk00Rdq8uAhm8ICl378K-127" value="created" style="rhombus;whiteSpace=wrap;html=1;" parent="1" vertex="1">
          <mxGeometry x="167" y="310" width="70" height="40" as="geometry" />
        </mxCell>
        <mxCell id="hk00Rdq8uAhm8ICl378K-135" style="edgeStyle=orthogonalEdgeStyle;rounded=0;orthogonalLoop=1;jettySize=auto;html=1;exitX=0;exitY=0.5;exitDx=0;exitDy=0;endArrow=ERoneToMany;endFill=0;" parent="1" source="hk00Rdq8uAhm8ICl378K-131" target="hk00Rdq8uAhm8ICl378K-9" edge="1">
          <mxGeometry relative="1" as="geometry" />
        </mxCell>
        <mxCell id="hk00Rdq8uAhm8ICl378K-136" style="edgeStyle=orthogonalEdgeStyle;rounded=0;orthogonalLoop=1;jettySize=auto;html=1;exitX=1;exitY=0.5;exitDx=0;exitDy=0;endArrow=ERone;endFill=0;" parent="1" source="hk00Rdq8uAhm8ICl378K-131" target="hk00Rdq8uAhm8ICl378K-8" edge="1">
          <mxGeometry relative="1" as="geometry" />
        </mxCell>
        <mxCell id="hk00Rdq8uAhm8ICl378K-131" value="for" style="rhombus;whiteSpace=wrap;html=1;" parent="1" vertex="1">
          <mxGeometry x="252" y="387.5" width="70" height="40" as="geometry" />
        </mxCell>
        <UserObject label="" plantUmlData="{&quot;data&quot;:&quot;@startuml class\n\n\n\nENTITY User {\n    id: int &lt;&lt;PK&gt;&gt;\n    username: string\n    email: string\n    password: string\n    first_name: string\n    last_name: string\n}\n\nENTITY Profile {\n    PK\n    id: int\n    bio: text\n    image: string\n    facebook: string\n    twitter: string\n    instagram: string\n    github: string\n    linkedin: string\n    youtube: string\n    website: string\n    new_post_email: bool\n}\n\nENTITY Category {\n    PK\n    id: int\n    name: string\n    slug: string\n}\n\nENTITY Tag {\n    PK\n    id: int\n    name: string\n    slug: string\n}\n\nENTITY Post {\n    PK\n    id: int\n    title: string\n    image: string\n    slug: string\n    body: text\n    created_at: datetime\n    updated_at: datetime\n    excerpt: string\n    status: string\n    admin_comment: text\n    flag_comment: text\n    email_sent: bool\n}\n\nENTITY PostView {\n    PK\n    id: int\n    date: date\n}\n\nENTITY Comment {\n    PK\n    id: int\n    body: text\n    created_at: date\n}\n\nENTITY Bookmark {\n    PK\n    id: int\n    created_at: datetime\n}\n\nENTITY Subscriber {\n    PK\n    id: int\n    email: string\n    created: datetime\n}\n\nUser --&gt; Profile\nUser --&gt; Bookmark\nUser --&gt; Comment\n\nPost --&gt; Category\nPost --&gt; Tag\nPost --&gt; PostView\nPost --&gt; Comment\nPost --&gt; Bookmark\n\nSubscriber --&gt; User\n\n@enduml\n&quot;,&quot;format&quot;:&quot;svg&quot;}" id="5jvego66JOtNKPKq_Y0C-1">
          <mxCell style="shape=image;noLabel=1;verticalAlign=top;aspect=fixed;imageAspect=0;image=data:image/svg+xml,PD94bWwgdmVyc2lvbj0iMS4wIiBlbmNvZGluZz0idXMtYXNjaWkiIHN0YW5kYWxvbmU9Im5vIj8+PHN2ZyB4bWxucz0iaHR0cDovL3d3dy53My5vcmcvMjAwMC9zdmciIHhtbG5zOnhsaW5rPSJodHRwOi8vd3d3LnczLm9yZy8xOTk5L3hsaW5rIiBjb250ZW50U3R5bGVUeXBlPSJ0ZXh0L2NzcyIgaGVpZ2h0PSI3MTJweCIgcHJlc2VydmVBc3BlY3RSYXRpbz0ibm9uZSIgc3R5bGU9IndpZHRoOjkwM3B4O2hlaWdodDo3MTJweDtiYWNrZ3JvdW5kOiNGRkZGRkY7IiB2ZXJzaW9uPSIxLjEiIHZpZXdCb3g9IjAgMCA5MDMgNzEyIiB3aWR0aD0iOTAzcHgiIHpvb21BbmRQYW49Im1hZ25pZnkiPjxkZWZzLz48Zz48IS0tY2xhc3MgVXNlci0tPjxnIGlkPSJlbGVtX1VzZXIiPjxyZWN0IGNvZGVMaW5lPSIxIiBmaWxsPSIjRjFGMUYxIiBoZWlnaHQ9IjEzNy45MDYzIiBpZD0iVXNlciIgcng9IjIuNSIgcnk9IjIuNSIgc3R5bGU9InN0cm9rZTojMTgxODE4O3N0cm9rZS13aWR0aDowLjU7IiB3aWR0aD0iMTM5IiB4PSIxODguNSIgeT0iMjI3LjUiLz48ZWxsaXBzZSBjeD0iMjM5Ljc1IiBjeT0iMjQzLjUiIGZpbGw9IiNBREQxQjIiIHJ4PSIxMSIgcnk9IjExIiBzdHlsZT0ic3Ryb2tlOiMxODE4MTg7c3Ryb2tlLXdpZHRoOjEuMDsiLz48cGF0aCBkPSJNMjQzLjM3NSwyNDkuNSBMMjQzLjM3NSwyNDcuNzUgTDIzOC4wNjI1LDI0Ny43NSBRMjM4LjA2MjUsMjQ3Ljc1IDIzOC4wNjI1LDI0NC4xODc1IEwyNDIuMzEyNSwyNDQuMTg3NSBMMjQyLjMxMjUsMjQyLjQzNzUgTDIzOC4wNjI1LDI0Mi40Mzc1IEwyMzguMDYyNSwyMzkuOTM3NSBMMjQzLjM3NSwyMzkuOTM3NSBMMjQzLjM3NSwyMzguMTg3NSBMMjM2LjMxMjUsMjM4LjE4NzUgUTIzNi4zMTI1LDIzOC4xODc1IDIzNi4zMTI1LDI0OS41IEwyNDMuMzc1LDI0OS41IFogIiBmaWxsPSIjMDAwMDAwIi8+PHRleHQgZmlsbD0iIzAwMDAwMCIgZm9udC1mYW1pbHk9InNhbnMtc2VyaWYiIGZvbnQtc2l6ZT0iMTQiIGxlbmd0aEFkanVzdD0ic3BhY2luZyIgdGV4dExlbmd0aD0iMjgiIHg9IjI2MC4yNSIgeT0iMjQ5LjI0MjIiPlVzZXI8L3RleHQ+PGxpbmUgc3R5bGU9InN0cm9rZTojMTgxODE4O3N0cm9rZS13aWR0aDowLjU7IiB4MT0iMTg5LjUiIHgyPSIzMjYuNSIgeTE9IjI1OS41IiB5Mj0iMjU5LjUiLz48dGV4dCBmaWxsPSIjMDAwMDAwIiBmb250LWZhbWlseT0ic2Fucy1zZXJpZiIgZm9udC1zaXplPSIxNCIgbGVuZ3RoQWRqdXN0PSJzcGFjaW5nIiB0ZXh0TGVuZ3RoPSI4NiIgeD0iMTk0LjUiIHk9IjI3Ni43MzQ0Ij5pZDogaW50ICYjMTcxO1BLJiMxODc7PC90ZXh0Pjx0ZXh0IGZpbGw9IiMwMDAwMDAiIGZvbnQtZmFtaWx5PSJzYW5zLXNlcmlmIiBmb250LXNpemU9IjE0IiBsZW5ndGhBZGp1c3Q9InNwYWNpbmciIHRleHRMZW5ndGg9IjExMyIgeD0iMTk0LjUiIHk9IjI5MS43MTg4Ij51c2VybmFtZTogc3RyaW5nPC90ZXh0Pjx0ZXh0IGZpbGw9IiMwMDAwMDAiIGZvbnQtZmFtaWx5PSJzYW5zLXNlcmlmIiBmb250LXNpemU9IjE0IiBsZW5ndGhBZGp1c3Q9InNwYWNpbmciIHRleHRMZW5ndGg9IjkyIiB4PSIxOTQuNSIgeT0iMzA2LjcwMzEiPmVtYWlsOiBzdHJpbmc8L3RleHQ+PHRleHQgZmlsbD0iIzAwMDAwMCIgZm9udC1mYW1pbHk9InNhbnMtc2VyaWYiIGZvbnQtc2l6ZT0iMTQiIGxlbmd0aEFkanVzdD0ic3BhY2luZyIgdGV4dExlbmd0aD0iMTEzIiB4PSIxOTQuNSIgeT0iMzIxLjY4NzUiPnBhc3N3b3JkOiBzdHJpbmc8L3RleHQ+PHRleHQgZmlsbD0iIzAwMDAwMCIgZm9udC1mYW1pbHk9InNhbnMtc2VyaWYiIGZvbnQtc2l6ZT0iMTQiIGxlbmd0aEFkanVzdD0ic3BhY2luZyIgdGV4dExlbmd0aD0iMTI3IiB4PSIxOTQuNSIgeT0iMzM2LjY3MTkiPmZpcnN0X25hbWU6IHN0cmluZzwvdGV4dD48dGV4dCBmaWxsPSIjMDAwMDAwIiBmb250LWZhbWlseT0ic2Fucy1zZXJpZiIgZm9udC1zaXplPSIxNCIgbGVuZ3RoQWRqdXN0PSJzcGFjaW5nIiB0ZXh0TGVuZ3RoPSIxMjAiIHg9IjE5NC41IiB5PSIzNTEuNjU2MyI+bGFzdF9uYW1lOiBzdHJpbmc8L3RleHQ+PGxpbmUgc3R5bGU9InN0cm9rZTojMTgxODE4O3N0cm9rZS13aWR0aDowLjU7IiB4MT0iMTg5LjUiIHgyPSIzMjYuNSIgeTE9IjM1Ny40MDYzIiB5Mj0iMzU3LjQwNjMiLz48L2c+PCEtLWNsYXNzIFByb2ZpbGUtLT48ZyBpZD0iZWxlbV9Qcm9maWxlIj48cmVjdCBjb2RlTGluZT0iMTAiIGZpbGw9IiNGMUYxRjEiIGhlaWdodD0iMjI3LjgxMjUiIGlkPSJQcm9maWxlIiByeD0iMi41IiByeT0iMi41IiBzdHlsZT0ic3Ryb2tlOiMxODE4MTg7c3Ryb2tlLXdpZHRoOjAuNTsiIHdpZHRoPSIxNTQiIHg9IjciIHk9IjQ3OCIvPjxlbGxpcHNlIGN4PSI1NS4yNSIgY3k9IjQ5NCIgZmlsbD0iI0FERDFCMiIgcng9IjExIiByeT0iMTEiIHN0eWxlPSJzdHJva2U6IzE4MTgxODtzdHJva2Utd2lkdGg6MS4wOyIvPjxwYXRoIGQ9Ik01OC44NzUsNTAwIEw1OC44NzUsNDk4LjI1IEw1My41NjI1LDQ5OC4yNSBRNTMuNTYyNSw0OTguMjUgNTMuNTYyNSw0OTQuNjg3NSBMNTcuODEyNSw0OTQuNjg3NSBMNTcuODEyNSw0OTIuOTM3NSBMNTMuNTYyNSw0OTIuOTM3NSBMNTMuNTYyNSw0OTAuNDM3NSBMNTguODc1LDQ5MC40Mzc1IEw1OC44NzUsNDg4LjY4NzUgTDUxLjgxMjUsNDg4LjY4NzUgUTUxLjgxMjUsNDg4LjY4NzUgNTEuODEyNSw1MDAgTDU4Ljg3NSw1MDAgWiAiIGZpbGw9IiMwMDAwMDAiLz48dGV4dCBmaWxsPSIjMDAwMDAwIiBmb250LWZhbWlseT0ic2Fucy1zZXJpZiIgZm9udC1zaXplPSIxNCIgbGVuZ3RoQWRqdXN0PSJzcGFjaW5nIiB0ZXh0TGVuZ3RoPSI0OSIgeD0iNzUuNzUiIHk9IjQ5OS43NDIyIj5Qcm9maWxlPC90ZXh0PjxsaW5lIHN0eWxlPSJzdHJva2U6IzE4MTgxODtzdHJva2Utd2lkdGg6MC41OyIgeDE9IjgiIHgyPSIxNjAiIHkxPSI1MTAiIHkyPSI1MTAiLz48dGV4dCBmaWxsPSIjMDAwMDAwIiBmb250LWZhbWlseT0ic2Fucy1zZXJpZiIgZm9udC1zaXplPSIxNCIgbGVuZ3RoQWRqdXN0PSJzcGFjaW5nIiB0ZXh0TGVuZ3RoPSIxNCIgeD0iMTMiIHk9IjUyNy4yMzQ0Ij5QSzwvdGV4dD48dGV4dCBmaWxsPSIjMDAwMDAwIiBmb250LWZhbWlseT0ic2Fucy1zZXJpZiIgZm9udC1zaXplPSIxNCIgbGVuZ3RoQWRqdXN0PSJzcGFjaW5nIiB0ZXh0TGVuZ3RoPSI0OSIgeD0iMTMiIHk9IjU0Mi4yMTg4Ij5pZDogaW50PC90ZXh0Pjx0ZXh0IGZpbGw9IiMwMDAwMDAiIGZvbnQtZmFtaWx5PSJzYW5zLXNlcmlmIiBmb250LXNpemU9IjE0IiBsZW5ndGhBZGp1c3Q9InNwYWNpbmciIHRleHRMZW5ndGg9IjYzIiB4PSIxMyIgeT0iNTU3LjIwMzEiPmJpbzogdGV4dDwvdGV4dD48dGV4dCBmaWxsPSIjMDAwMDAwIiBmb250LWZhbWlseT0ic2Fucy1zZXJpZiIgZm9udC1zaXplPSIxNCIgbGVuZ3RoQWRqdXN0PSJzcGFjaW5nIiB0ZXh0TGVuZ3RoPSI5MiIgeD0iMTMiIHk9IjU3Mi4xODc1Ij5pbWFnZTogc3RyaW5nPC90ZXh0Pjx0ZXh0IGZpbGw9IiMwMDAwMDAiIGZvbnQtZmFtaWx5PSJzYW5zLXNlcmlmIiBmb250LXNpemU9IjE0IiBsZW5ndGhBZGp1c3Q9InNwYWNpbmciIHRleHRMZW5ndGg9IjExMiIgeD0iMTMiIHk9IjU4Ny4xNzE5Ij5mYWNlYm9vazogc3RyaW5nPC90ZXh0Pjx0ZXh0IGZpbGw9IiMwMDAwMDAiIGZvbnQtZmFtaWx5PSJzYW5zLXNlcmlmIiBmb250LXNpemU9IjE0IiBsZW5ndGhBZGp1c3Q9InNwYWNpbmciIHRleHRMZW5ndGg9IjEwNiIgeD0iMTMiIHk9IjYwMi4xNTYzIj50d2l0dGVyOiBzdHJpbmc8L3RleHQ+PHRleHQgZmlsbD0iIzAwMDAwMCIgZm9udC1mYW1pbHk9InNhbnMtc2VyaWYiIGZvbnQtc2l6ZT0iMTQiIGxlbmd0aEFkanVzdD0ic3BhY2luZyIgdGV4dExlbmd0aD0iMTIwIiB4PSIxMyIgeT0iNjE3LjE0MDYiPmluc3RhZ3JhbTogc3RyaW5nPC90ZXh0Pjx0ZXh0IGZpbGw9IiMwMDAwMDAiIGZvbnQtZmFtaWx5PSJzYW5zLXNlcmlmIiBmb250LXNpemU9IjE0IiBsZW5ndGhBZGp1c3Q9InNwYWNpbmciIHRleHRMZW5ndGg9Ijk4IiB4PSIxMyIgeT0iNjMyLjEyNSI+Z2l0aHViOiBzdHJpbmc8L3RleHQ+PHRleHQgZmlsbD0iIzAwMDAwMCIgZm9udC1mYW1pbHk9InNhbnMtc2VyaWYiIGZvbnQtc2l6ZT0iMTQiIGxlbmd0aEFkanVzdD0ic3BhY2luZyIgdGV4dExlbmd0aD0iMTEyIiB4PSIxMyIgeT0iNjQ3LjEwOTQiPmxpbmtlZGluOiBzdHJpbmc8L3RleHQ+PHRleHQgZmlsbD0iIzAwMDAwMCIgZm9udC1mYW1pbHk9InNhbnMtc2VyaWYiIGZvbnQtc2l6ZT0iMTQiIGxlbmd0aEFkanVzdD0ic3BhY2luZyIgdGV4dExlbmd0aD0iMTA1IiB4PSIxMyIgeT0iNjYyLjA5MzgiPnlvdXR1YmU6IHN0cmluZzwvdGV4dD48dGV4dCBmaWxsPSIjMDAwMDAwIiBmb250LWZhbWlseT0ic2Fucy1zZXJpZiIgZm9udC1zaXplPSIxNCIgbGVuZ3RoQWRqdXN0PSJzcGFjaW5nIiB0ZXh0TGVuZ3RoPSIxMDYiIHg9IjEzIiB5PSI2NzcuMDc4MSI+d2Vic2l0ZTogc3RyaW5nPC90ZXh0Pjx0ZXh0IGZpbGw9IiMwMDAwMDAiIGZvbnQtZmFtaWx5PSJzYW5zLXNlcmlmIiBmb250LXNpemU9IjE0IiBsZW5ndGhBZGp1c3Q9InNwYWNpbmciIHRleHRMZW5ndGg9IjE0MiIgeD0iMTMiIHk9IjY5Mi4wNjI1Ij5uZXdfcG9zdF9lbWFpbDogYm9vbDwvdGV4dD48bGluZSBzdHlsZT0ic3Ryb2tlOiMxODE4MTg7c3Ryb2tlLXdpZHRoOjAuNTsiIHgxPSI4IiB4Mj0iMTYwIiB5MT0iNjk3LjgxMjUiIHkyPSI2OTcuODEyNSIvPjwvZz48IS0tY2xhc3MgQ2F0ZWdvcnktLT48ZyBpZD0iZWxlbV9DYXRlZ29yeSI+PHJlY3QgY29kZUxpbmU9IjI1IiBmaWxsPSIjRjFGMUYxIiBoZWlnaHQ9IjEwNy45Mzc1IiBpZD0iQ2F0ZWdvcnkiIHJ4PSIyLjUiIHJ5PSIyLjUiIHN0eWxlPSJzdHJva2U6IzE4MTgxODtzdHJva2Utd2lkdGg6MC41OyIgd2lkdGg9Ijk3IiB4PSI1NDMuNSIgeT0iNTM4Ii8+PGVsbGlwc2UgY3g9IjU2Mi41NSIgY3k9IjU1NCIgZmlsbD0iI0FERDFCMiIgcng9IjExIiByeT0iMTEiIHN0eWxlPSJzdHJva2U6IzE4MTgxODtzdHJva2Utd2lkdGg6MS4wOyIvPjxwYXRoIGQ9Ik01NjYuMTc1LDU2MCBMNTY2LjE3NSw1NTguMjUgTDU2MC44NjI1LDU1OC4yNSBRNTYwLjg2MjUsNTU4LjI1IDU2MC44NjI1LDU1NC42ODc1IEw1NjUuMTEyNSw1NTQuNjg3NSBMNTY1LjExMjUsNTUyLjkzNzUgTDU2MC44NjI1LDU1Mi45Mzc1IEw1NjAuODYyNSw1NTAuNDM3NSBMNTY2LjE3NSw1NTAuNDM3NSBMNTY2LjE3NSw1NDguNjg3NSBMNTU5LjExMjUsNTQ4LjY4NzUgUTU1OS4xMTI1LDU0OC42ODc1IDU1OS4xMTI1LDU2MCBMNTY2LjE3NSw1NjAgWiAiIGZpbGw9IiMwMDAwMDAiLz48dGV4dCBmaWxsPSIjMDAwMDAwIiBmb250LWZhbWlseT0ic2Fucy1zZXJpZiIgZm9udC1zaXplPSIxNCIgbGVuZ3RoQWRqdXN0PSJzcGFjaW5nIiB0ZXh0TGVuZ3RoPSI1NiIgeD0iNTc3LjQ1IiB5PSI1NTkuNzQyMiI+Q2F0ZWdvcnk8L3RleHQ+PGxpbmUgc3R5bGU9InN0cm9rZTojMTgxODE4O3N0cm9rZS13aWR0aDowLjU7IiB4MT0iNTQ0LjUiIHgyPSI2MzkuNSIgeTE9IjU3MCIgeTI9IjU3MCIvPjx0ZXh0IGZpbGw9IiMwMDAwMDAiIGZvbnQtZmFtaWx5PSJzYW5zLXNlcmlmIiBmb250LXNpemU9IjE0IiBsZW5ndGhBZGp1c3Q9InNwYWNpbmciIHRleHRMZW5ndGg9IjE0IiB4PSI1NDkuNSIgeT0iNTg3LjIzNDQiPlBLPC90ZXh0Pjx0ZXh0IGZpbGw9IiMwMDAwMDAiIGZvbnQtZmFtaWx5PSJzYW5zLXNlcmlmIiBmb250LXNpemU9IjE0IiBsZW5ndGhBZGp1c3Q9InNwYWNpbmciIHRleHRMZW5ndGg9IjQ5IiB4PSI1NDkuNSIgeT0iNjAyLjIxODgiPmlkOiBpbnQ8L3RleHQ+PHRleHQgZmlsbD0iIzAwMDAwMCIgZm9udC1mYW1pbHk9InNhbnMtc2VyaWYiIGZvbnQtc2l6ZT0iMTQiIGxlbmd0aEFkanVzdD0ic3BhY2luZyIgdGV4dExlbmd0aD0iODUiIHg9IjU0OS41IiB5PSI2MTcuMjAzMSI+bmFtZTogc3RyaW5nPC90ZXh0Pjx0ZXh0IGZpbGw9IiMwMDAwMDAiIGZvbnQtZmFtaWx5PSJzYW5zLXNlcmlmIiBmb250LXNpemU9IjE0IiBsZW5ndGhBZGp1c3Q9InNwYWNpbmciIHRleHRMZW5ndGg9Ijg0IiB4PSI1NDkuNSIgeT0iNjMyLjE4NzUiPnNsdWc6IHN0cmluZzwvdGV4dD48bGluZSBzdHlsZT0ic3Ryb2tlOiMxODE4MTg7c3Ryb2tlLXdpZHRoOjAuNTsiIHgxPSI1NDQuNSIgeDI9IjYzOS41IiB5MT0iNjM3LjkzNzUiIHkyPSI2MzcuOTM3NSIvPjwvZz48IS0tY2xhc3MgVGFnLS0+PGcgaWQ9ImVsZW1fVGFnIj48cmVjdCBjb2RlTGluZT0iMzIiIGZpbGw9IiNGMUYxRjEiIGhlaWdodD0iMTA3LjkzNzUiIGlkPSJUYWciIHJ4PSIyLjUiIHJ5PSIyLjUiIHN0eWxlPSJzdHJva2U6IzE4MTgxODtzdHJva2Utd2lkdGg6MC41OyIgd2lkdGg9Ijk3IiB4PSI2NzUuNSIgeT0iNTM4Ii8+PGVsbGlwc2UgY3g9IjcxMC4zIiBjeT0iNTU0IiBmaWxsPSIjQUREMUIyIiByeD0iMTEiIHJ5PSIxMSIgc3R5bGU9InN0cm9rZTojMTgxODE4O3N0cm9rZS13aWR0aDoxLjA7Ii8+PHBhdGggZD0iTTcxMy45MjUsNTYwIEw3MTMuOTI1LDU1OC4yNSBMNzA4LjYxMjUsNTU4LjI1IFE3MDguNjEyNSw1NTguMjUgNzA4LjYxMjUsNTU0LjY4NzUgTDcxMi44NjI1LDU1NC42ODc1IEw3MTIuODYyNSw1NTIuOTM3NSBMNzA4LjYxMjUsNTUyLjkzNzUgTDcwOC42MTI1LDU1MC40Mzc1IEw3MTMuOTI1LDU1MC40Mzc1IEw3MTMuOTI1LDU0OC42ODc1IEw3MDYuODYyNSw1NDguNjg3NSBRNzA2Ljg2MjUsNTQ4LjY4NzUgNzA2Ljg2MjUsNTYwIEw3MTMuOTI1LDU2MCBaICIgZmlsbD0iIzAwMDAwMCIvPjx0ZXh0IGZpbGw9IiMwMDAwMDAiIGZvbnQtZmFtaWx5PSJzYW5zLXNlcmlmIiBmb250LXNpemU9IjE0IiBsZW5ndGhBZGp1c3Q9InNwYWNpbmciIHRleHRMZW5ndGg9IjIxIiB4PSI3MjguNyIgeT0iNTU5Ljc0MjIiPlRhZzwvdGV4dD48bGluZSBzdHlsZT0ic3Ryb2tlOiMxODE4MTg7c3Ryb2tlLXdpZHRoOjAuNTsiIHgxPSI2NzYuNSIgeDI9Ijc3MS41IiB5MT0iNTcwIiB5Mj0iNTcwIi8+PHRleHQgZmlsbD0iIzAwMDAwMCIgZm9udC1mYW1pbHk9InNhbnMtc2VyaWYiIGZvbnQtc2l6ZT0iMTQiIGxlbmd0aEFkanVzdD0ic3BhY2luZyIgdGV4dExlbmd0aD0iMTQiIHg9IjY4MS41IiB5PSI1ODcuMjM0NCI+UEs8L3RleHQ+PHRleHQgZmlsbD0iIzAwMDAwMCIgZm9udC1mYW1pbHk9InNhbnMtc2VyaWYiIGZvbnQtc2l6ZT0iMTQiIGxlbmd0aEFkanVzdD0ic3BhY2luZyIgdGV4dExlbmd0aD0iNDkiIHg9IjY4MS41IiB5PSI2MDIuMjE4OCI+aWQ6IGludDwvdGV4dD48dGV4dCBmaWxsPSIjMDAwMDAwIiBmb250LWZhbWlseT0ic2Fucy1zZXJpZiIgZm9udC1zaXplPSIxNCIgbGVuZ3RoQWRqdXN0PSJzcGFjaW5nIiB0ZXh0TGVuZ3RoPSI4NSIgeD0iNjgxLjUiIHk9IjYxNy4yMDMxIj5uYW1lOiBzdHJpbmc8L3RleHQ+PHRleHQgZmlsbD0iIzAwMDAwMCIgZm9udC1mYW1pbHk9InNhbnMtc2VyaWYiIGZvbnQtc2l6ZT0iMTQiIGxlbmd0aEFkanVzdD0ic3BhY2luZyIgdGV4dExlbmd0aD0iODQiIHg9IjY4MS41IiB5PSI2MzIuMTg3NSI+c2x1Zzogc3RyaW5nPC90ZXh0PjxsaW5lIHN0eWxlPSJzdHJva2U6IzE4MTgxODtzdHJva2Utd2lkdGg6MC41OyIgeDE9IjY3Ni41IiB4Mj0iNzcxLjUiIHkxPSI2MzcuOTM3NSIgeTI9IjYzNy45Mzc1Ii8+PC9nPjwhLS1jbGFzcyBQb3N0LS0+PGcgaWQ9ImVsZW1fUG9zdCI+PHJlY3QgY29kZUxpbmU9IjM5IiBmaWxsPSIjRjFGMUYxIiBoZWlnaHQ9IjI0Mi43OTY5IiBpZD0iUG9zdCIgcng9IjIuNSIgcnk9IjIuNSIgc3R5bGU9InN0cm9rZTojMTgxODE4O3N0cm9rZS13aWR0aDowLjU7IiB3aWR0aD0iMTUzIiB4PSI1MTUuNSIgeT0iMTc1Ii8+PGVsbGlwc2UgY3g9IjU3My43NSIgY3k9IjE5MSIgZmlsbD0iI0FERDFCMiIgcng9IjExIiByeT0iMTEiIHN0eWxlPSJzdHJva2U6IzE4MTgxODtzdHJva2Utd2lkdGg6MS4wOyIvPjxwYXRoIGQ9Ik01NzcuMzc1LDE5NyBMNTc3LjM3NSwxOTUuMjUgTDU3Mi4wNjI1LDE5NS4yNSBRNTcyLjA2MjUsMTk1LjI1IDU3Mi4wNjI1LDE5MS42ODc1IEw1NzYuMzEyNSwxOTEuNjg3NSBMNTc2LjMxMjUsMTg5LjkzNzUgTDU3Mi4wNjI1LDE4OS45Mzc1IEw1NzIuMDYyNSwxODcuNDM3NSBMNTc3LjM3NSwxODcuNDM3NSBMNTc3LjM3NSwxODUuNjg3NSBMNTcwLjMxMjUsMTg1LjY4NzUgUTU3MC4zMTI1LDE4NS42ODc1IDU3MC4zMTI1LDE5NyBMNTc3LjM3NSwxOTcgWiAiIGZpbGw9IiMwMDAwMDAiLz48dGV4dCBmaWxsPSIjMDAwMDAwIiBmb250LWZhbWlseT0ic2Fucy1zZXJpZiIgZm9udC1zaXplPSIxNCIgbGVuZ3RoQWRqdXN0PSJzcGFjaW5nIiB0ZXh0TGVuZ3RoPSIyOCIgeD0iNTk0LjI1IiB5PSIxOTYuNzQyMiI+UG9zdDwvdGV4dD48bGluZSBzdHlsZT0ic3Ryb2tlOiMxODE4MTg7c3Ryb2tlLXdpZHRoOjAuNTsiIHgxPSI1MTYuNSIgeDI9IjY2Ny41IiB5MT0iMjA3IiB5Mj0iMjA3Ii8+PHRleHQgZmlsbD0iIzAwMDAwMCIgZm9udC1mYW1pbHk9InNhbnMtc2VyaWYiIGZvbnQtc2l6ZT0iMTQiIGxlbmd0aEFkanVzdD0ic3BhY2luZyIgdGV4dExlbmd0aD0iMTQiIHg9IjUyMS41IiB5PSIyMjQuMjM0NCI+UEs8L3RleHQ+PHRleHQgZmlsbD0iIzAwMDAwMCIgZm9udC1mYW1pbHk9InNhbnMtc2VyaWYiIGZvbnQtc2l6ZT0iMTQiIGxlbmd0aEFkanVzdD0ic3BhY2luZyIgdGV4dExlbmd0aD0iNDkiIHg9IjUyMS41IiB5PSIyMzkuMjE4OCI+aWQ6IGludDwvdGV4dD48dGV4dCBmaWxsPSIjMDAwMDAwIiBmb250LWZhbWlseT0ic2Fucy1zZXJpZiIgZm9udC1zaXplPSIxNCIgbGVuZ3RoQWRqdXN0PSJzcGFjaW5nIiB0ZXh0TGVuZ3RoPSI5MSIgeD0iNTIxLjUiIHk9IjI1NC4yMDMxIj50aXRsZTogc3RyaW5nPC90ZXh0Pjx0ZXh0IGZpbGw9IiMwMDAwMDAiIGZvbnQtZmFtaWx5PSJzYW5zLXNlcmlmIiBmb250LXNpemU9IjE0IiBsZW5ndGhBZGp1c3Q9InNwYWNpbmciIHRleHRMZW5ndGg9IjkyIiB4PSI1MjEuNSIgeT0iMjY5LjE4NzUiPmltYWdlOiBzdHJpbmc8L3RleHQ+PHRleHQgZmlsbD0iIzAwMDAwMCIgZm9udC1mYW1pbHk9InNhbnMtc2VyaWYiIGZvbnQtc2l6ZT0iMTQiIGxlbmd0aEFkanVzdD0ic3BhY2luZyIgdGV4dExlbmd0aD0iODQiIHg9IjUyMS41IiB5PSIyODQuMTcxOSI+c2x1Zzogc3RyaW5nPC90ZXh0Pjx0ZXh0IGZpbGw9IiMwMDAwMDAiIGZvbnQtZmFtaWx5PSJzYW5zLXNlcmlmIiBmb250LXNpemU9IjE0IiBsZW5ndGhBZGp1c3Q9InNwYWNpbmciIHRleHRMZW5ndGg9IjcwIiB4PSI1MjEuNSIgeT0iMjk5LjE1NjMiPmJvZHk6IHRleHQ8L3RleHQ+PHRleHQgZmlsbD0iIzAwMDAwMCIgZm9udC1mYW1pbHk9InNhbnMtc2VyaWYiIGZvbnQtc2l6ZT0iMTQiIGxlbmd0aEFkanVzdD0ic3BhY2luZyIgdGV4dExlbmd0aD0iMTQxIiB4PSI1MjEuNSIgeT0iMzE0LjE0MDYiPmNyZWF0ZWRfYXQ6IGRhdGV0aW1lPC90ZXh0Pjx0ZXh0IGZpbGw9IiMwMDAwMDAiIGZvbnQtZmFtaWx5PSJzYW5zLXNlcmlmIiBmb250LXNpemU9IjE0IiBsZW5ndGhBZGp1c3Q9InNwYWNpbmciIHRleHRMZW5ndGg9IjE0MSIgeD0iNTIxLjUiIHk9IjMyOS4xMjUiPnVwZGF0ZWRfYXQ6IGRhdGV0aW1lPC90ZXh0Pjx0ZXh0IGZpbGw9IiMwMDAwMDAiIGZvbnQtZmFtaWx5PSJzYW5zLXNlcmlmIiBmb250LXNpemU9IjE0IiBsZW5ndGhBZGp1c3Q9InNwYWNpbmciIHRleHRMZW5ndGg9IjEwNSIgeD0iNTIxLjUiIHk9IjM0NC4xMDk0Ij5leGNlcnB0OiBzdHJpbmc8L3RleHQ+PHRleHQgZmlsbD0iIzAwMDAwMCIgZm9udC1mYW1pbHk9InNhbnMtc2VyaWYiIGZvbnQtc2l6ZT0iMTQiIGxlbmd0aEFkanVzdD0ic3BhY2luZyIgdGV4dExlbmd0aD0iOTgiIHg9IjUyMS41IiB5PSIzNTkuMDkzOCI+c3RhdHVzOiBzdHJpbmc8L3RleHQ+PHRleHQgZmlsbD0iIzAwMDAwMCIgZm9udC1mYW1pbHk9InNhbnMtc2VyaWYiIGZvbnQtc2l6ZT0iMTQiIGxlbmd0aEFkanVzdD0ic3BhY2luZyIgdGV4dExlbmd0aD0iMTM2IiB4PSI1MjEuNSIgeT0iMzc0LjA3ODEiPmFkbWluX2NvbW1lbnQ6IHRleHQ8L3RleHQ+PHRleHQgZmlsbD0iIzAwMDAwMCIgZm9udC1mYW1pbHk9InNhbnMtc2VyaWYiIGZvbnQtc2l6ZT0iMTQiIGxlbmd0aEFkanVzdD0ic3BhY2luZyIgdGV4dExlbmd0aD0iMTI4IiB4PSI1MjEuNSIgeT0iMzg5LjA2MjUiPmZsYWdfY29tbWVudDogdGV4dDwvdGV4dD48dGV4dCBmaWxsPSIjMDAwMDAwIiBmb250LWZhbWlseT0ic2Fucy1zZXJpZiIgZm9udC1zaXplPSIxNCIgbGVuZ3RoQWRqdXN0PSJzcGFjaW5nIiB0ZXh0TGVuZ3RoPSIxMTMiIHg9IjUyMS41IiB5PSI0MDQuMDQ2OSI+ZW1haWxfc2VudDogYm9vbDwvdGV4dD48bGluZSBzdHlsZT0ic3Ryb2tlOiMxODE4MTg7c3Ryb2tlLXdpZHRoOjAuNTsiIHgxPSI1MTYuNSIgeDI9IjY2Ny41IiB5MT0iNDA5Ljc5NjkiIHkyPSI0MDkuNzk2OSIvPjwvZz48IS0tY2xhc3MgUG9zdFZpZXctLT48ZyBpZD0iZWxlbV9Qb3N0VmlldyI+PHJlY3QgY29kZUxpbmU9IjU1IiBmaWxsPSIjRjFGMUYxIiBoZWlnaHQ9IjkyLjk1MzEiIGlkPSJQb3N0VmlldyIgcng9IjIuNSIgcnk9IjIuNSIgc3R5bGU9InN0cm9rZTojMTgxODE4O3N0cm9rZS13aWR0aDowLjU7IiB3aWR0aD0iODkiIHg9IjgwNy41IiB5PSI1NDUuNSIvPjxlbGxpcHNlIGN4PSI4MjIuNSIgY3k9IjU2MS41IiBmaWxsPSIjQUREMUIyIiByeD0iMTEiIHJ5PSIxMSIgc3R5bGU9InN0cm9rZTojMTgxODE4O3N0cm9rZS13aWR0aDoxLjA7Ii8+PHBhdGggZD0iTTgyNi4xMjUsNTY3LjUgTDgyNi4xMjUsNTY1Ljc1IEw4MjAuODEyNSw1NjUuNzUgUTgyMC44MTI1LDU2NS43NSA4MjAuODEyNSw1NjIuMTg3NSBMODI1LjA2MjUsNTYyLjE4NzUgTDgyNS4wNjI1LDU2MC40Mzc1IEw4MjAuODEyNSw1NjAuNDM3NSBMODIwLjgxMjUsNTU3LjkzNzUgTDgyNi4xMjUsNTU3LjkzNzUgTDgyNi4xMjUsNTU2LjE4NzUgTDgxOS4wNjI1LDU1Ni4xODc1IFE4MTkuMDYyNSw1NTYuMTg3NSA4MTkuMDYyNSw1NjcuNSBMODI2LjEyNSw1NjcuNSBaICIgZmlsbD0iIzAwMDAwMCIvPjx0ZXh0IGZpbGw9IiMwMDAwMDAiIGZvbnQtZmFtaWx5PSJzYW5zLXNlcmlmIiBmb250LXNpemU9IjE0IiBsZW5ndGhBZGp1c3Q9InNwYWNpbmciIHRleHRMZW5ndGg9IjU3IiB4PSI4MzYuNSIgeT0iNTY3LjI0MjIiPlBvc3RWaWV3PC90ZXh0PjxsaW5lIHN0eWxlPSJzdHJva2U6IzE4MTgxODtzdHJva2Utd2lkdGg6MC41OyIgeDE9IjgwOC41IiB4Mj0iODk1LjUiIHkxPSI1NzcuNSIgeTI9IjU3Ny41Ii8+PHRleHQgZmlsbD0iIzAwMDAwMCIgZm9udC1mYW1pbHk9InNhbnMtc2VyaWYiIGZvbnQtc2l6ZT0iMTQiIGxlbmd0aEFkanVzdD0ic3BhY2luZyIgdGV4dExlbmd0aD0iMTQiIHg9IjgxMy41IiB5PSI1OTQuNzM0NCI+UEs8L3RleHQ+PHRleHQgZmlsbD0iIzAwMDAwMCIgZm9udC1mYW1pbHk9InNhbnMtc2VyaWYiIGZvbnQtc2l6ZT0iMTQiIGxlbmd0aEFkanVzdD0ic3BhY2luZyIgdGV4dExlbmd0aD0iNDkiIHg9IjgxMy41IiB5PSI2MDkuNzE4OCI+aWQ6IGludDwvdGV4dD48dGV4dCBmaWxsPSIjMDAwMDAwIiBmb250LWZhbWlseT0ic2Fucy1zZXJpZiIgZm9udC1zaXplPSIxNCIgbGVuZ3RoQWRqdXN0PSJzcGFjaW5nIiB0ZXh0TGVuZ3RoPSI3MCIgeD0iODEzLjUiIHk9IjYyNC43MDMxIj5kYXRlOiBkYXRlPC90ZXh0PjxsaW5lIHN0eWxlPSJzdHJva2U6IzE4MTgxODtzdHJva2Utd2lkdGg6MC41OyIgeDE9IjgwOC41IiB4Mj0iODk1LjUiIHkxPSI2MzAuNDUzMSIgeTI9IjYzMC40NTMxIi8+PC9nPjwhLS1jbGFzcyBDb21tZW50LS0+PGcgaWQ9ImVsZW1fQ29tbWVudCI+PHJlY3QgY29kZUxpbmU9IjYxIiBmaWxsPSIjRjFGMUYxIiBoZWlnaHQ9IjEwNy45Mzc1IiBpZD0iQ29tbWVudCIgcng9IjIuNSIgcnk9IjIuNSIgc3R5bGU9InN0cm9rZTojMTgxODE4O3N0cm9rZS13aWR0aDowLjU7IiB3aWR0aD0iMTI0IiB4PSIxOTYiIHk9IjUzOCIvPjxlbGxpcHNlIGN4PSIyMjkuNDUiIGN5PSI1NTQiIGZpbGw9IiNBREQxQjIiIHJ4PSIxMSIgcnk9IjExIiBzdHlsZT0ic3Ryb2tlOiMxODE4MTg7c3Ryb2tlLXdpZHRoOjEuMDsiLz48cGF0aCBkPSJNMjMzLjA3NSw1NjAgTDIzMy4wNzUsNTU4LjI1IEwyMjcuNzYyNSw1NTguMjUgUTIyNy43NjI1LDU1OC4yNSAyMjcuNzYyNSw1NTQuNjg3NSBMMjMyLjAxMjUsNTU0LjY4NzUgTDIzMi4wMTI1LDU1Mi45Mzc1IEwyMjcuNzYyNSw1NTIuOTM3NSBMMjI3Ljc2MjUsNTUwLjQzNzUgTDIzMy4wNzUsNTUwLjQzNzUgTDIzMy4wNzUsNTQ4LjY4NzUgTDIyNi4wMTI1LDU0OC42ODc1IFEyMjYuMDEyNSw1NDguNjg3NSAyMjYuMDEyNSw1NjAgTDIzMy4wNzUsNTYwIFogIiBmaWxsPSIjMDAwMDAwIi8+PHRleHQgZmlsbD0iIzAwMDAwMCIgZm9udC1mYW1pbHk9InNhbnMtc2VyaWYiIGZvbnQtc2l6ZT0iMTQiIGxlbmd0aEFkanVzdD0ic3BhY2luZyIgdGV4dExlbmd0aD0iNTEiIHg9IjI0Ny41NSIgeT0iNTU5Ljc0MjIiPkNvbW1lbnQ8L3RleHQ+PGxpbmUgc3R5bGU9InN0cm9rZTojMTgxODE4O3N0cm9rZS13aWR0aDowLjU7IiB4MT0iMTk3IiB4Mj0iMzE5IiB5MT0iNTcwIiB5Mj0iNTcwIi8+PHRleHQgZmlsbD0iIzAwMDAwMCIgZm9udC1mYW1pbHk9InNhbnMtc2VyaWYiIGZvbnQtc2l6ZT0iMTQiIGxlbmd0aEFkanVzdD0ic3BhY2luZyIgdGV4dExlbmd0aD0iMTQiIHg9IjIwMiIgeT0iNTg3LjIzNDQiPlBLPC90ZXh0Pjx0ZXh0IGZpbGw9IiMwMDAwMDAiIGZvbnQtZmFtaWx5PSJzYW5zLXNlcmlmIiBmb250LXNpemU9IjE0IiBsZW5ndGhBZGp1c3Q9InNwYWNpbmciIHRleHRMZW5ndGg9IjQ5IiB4PSIyMDIiIHk9IjYwMi4yMTg4Ij5pZDogaW50PC90ZXh0Pjx0ZXh0IGZpbGw9IiMwMDAwMDAiIGZvbnQtZmFtaWx5PSJzYW5zLXNlcmlmIiBmb250LXNpemU9IjE0IiBsZW5ndGhBZGp1c3Q9InNwYWNpbmciIHRleHRMZW5ndGg9IjcwIiB4PSIyMDIiIHk9IjYxNy4yMDMxIj5ib2R5OiB0ZXh0PC90ZXh0Pjx0ZXh0IGZpbGw9IiMwMDAwMDAiIGZvbnQtZmFtaWx5PSJzYW5zLXNlcmlmIiBmb250LXNpemU9IjE0IiBsZW5ndGhBZGp1c3Q9InNwYWNpbmciIHRleHRMZW5ndGg9IjExMiIgeD0iMjAyIiB5PSI2MzIuMTg3NSI+Y3JlYXRlZF9hdDogZGF0ZTwvdGV4dD48bGluZSBzdHlsZT0ic3Ryb2tlOiMxODE4MTg7c3Ryb2tlLXdpZHRoOjAuNTsiIHgxPSIxOTciIHgyPSIzMTkiIHkxPSI2MzcuOTM3NSIgeTI9IjYzNy45Mzc1Ii8+PC9nPjwhLS1jbGFzcyBCb29rbWFyay0tPjxnIGlkPSJlbGVtX0Jvb2ttYXJrIj48cmVjdCBjb2RlTGluZT0iNjgiIGZpbGw9IiNGMUYxRjEiIGhlaWdodD0iOTIuOTUzMSIgaWQ9IkJvb2ttYXJrIiByeD0iMi41IiByeT0iMi41IiBzdHlsZT0ic3Ryb2tlOiMxODE4MTg7c3Ryb2tlLXdpZHRoOjAuNTsiIHdpZHRoPSIxNTMiIHg9IjM1NS41IiB5PSI1NDUuNSIvPjxlbGxpcHNlIGN4PSIzOTkuMyIgY3k9IjU2MS41IiBmaWxsPSIjQUREMUIyIiByeD0iMTEiIHJ5PSIxMSIgc3R5bGU9InN0cm9rZTojMTgxODE4O3N0cm9rZS13aWR0aDoxLjA7Ii8+PHBhdGggZD0iTTQwMi45MjUsNTY3LjUgTDQwMi45MjUsNTY1Ljc1IEwzOTcuNjEyNSw1NjUuNzUgUTM5Ny42MTI1LDU2NS43NSAzOTcuNjEyNSw1NjIuMTg3NSBMNDAxLjg2MjUsNTYyLjE4NzUgTDQwMS44NjI1LDU2MC40Mzc1IEwzOTcuNjEyNSw1NjAuNDM3NSBMMzk3LjYxMjUsNTU3LjkzNzUgTDQwMi45MjUsNTU3LjkzNzUgTDQwMi45MjUsNTU2LjE4NzUgTDM5NS44NjI1LDU1Ni4xODc1IFEzOTUuODYyNSw1NTYuMTg3NSAzOTUuODYyNSw1NjcuNSBMNDAyLjkyNSw1NjcuNSBaICIgZmlsbD0iIzAwMDAwMCIvPjx0ZXh0IGZpbGw9IiMwMDAwMDAiIGZvbnQtZmFtaWx5PSJzYW5zLXNlcmlmIiBmb250LXNpemU9IjE0IiBsZW5ndGhBZGp1c3Q9InNwYWNpbmciIHRleHRMZW5ndGg9IjU3IiB4PSI0MTkuNyIgeT0iNTY3LjI0MjIiPkJvb2ttYXJrPC90ZXh0PjxsaW5lIHN0eWxlPSJzdHJva2U6IzE4MTgxODtzdHJva2Utd2lkdGg6MC41OyIgeDE9IjM1Ni41IiB4Mj0iNTA3LjUiIHkxPSI1NzcuNSIgeTI9IjU3Ny41Ii8+PHRleHQgZmlsbD0iIzAwMDAwMCIgZm9udC1mYW1pbHk9InNhbnMtc2VyaWYiIGZvbnQtc2l6ZT0iMTQiIGxlbmd0aEFkanVzdD0ic3BhY2luZyIgdGV4dExlbmd0aD0iMTQiIHg9IjM2MS41IiB5PSI1OTQuNzM0NCI+UEs8L3RleHQ+PHRleHQgZmlsbD0iIzAwMDAwMCIgZm9udC1mYW1pbHk9InNhbnMtc2VyaWYiIGZvbnQtc2l6ZT0iMTQiIGxlbmd0aEFkanVzdD0ic3BhY2luZyIgdGV4dExlbmd0aD0iNDkiIHg9IjM2MS41IiB5PSI2MDkuNzE4OCI+aWQ6IGludDwvdGV4dD48dGV4dCBmaWxsPSIjMDAwMDAwIiBmb250LWZhbWlseT0ic2Fucy1zZXJpZiIgZm9udC1zaXplPSIxNCIgbGVuZ3RoQWRqdXN0PSJzcGFjaW5nIiB0ZXh0TGVuZ3RoPSIxNDEiIHg9IjM2MS41IiB5PSI2MjQuNzAzMSI+Y3JlYXRlZF9hdDogZGF0ZXRpbWU8L3RleHQ+PGxpbmUgc3R5bGU9InN0cm9rZTojMTgxODE4O3N0cm9rZS13aWR0aDowLjU7IiB4MT0iMzU2LjUiIHgyPSI1MDcuNSIgeTE9IjYzMC40NTMxIiB5Mj0iNjMwLjQ1MzEiLz48L2c+PCEtLWNsYXNzIFN1YnNjcmliZXItLT48ZyBpZD0iZWxlbV9TdWJzY3JpYmVyIj48cmVjdCBjb2RlTGluZT0iNzQiIGZpbGw9IiNGMUYxRjEiIGhlaWdodD0iMTA3LjkzNzUiIGlkPSJTdWJzY3JpYmVyIiByeD0iMi41IiByeT0iMi41IiBzdHlsZT0ic3Ryb2tlOiMxODE4MTg7c3Ryb2tlLXdpZHRoOjAuNTsiIHdpZHRoPSIxMzIiIHg9IjE5MiIgeT0iNyIvPjxlbGxpcHNlIGN4PSIyMjAuNSIgY3k9IjIzIiBmaWxsPSIjQUREMUIyIiByeD0iMTEiIHJ5PSIxMSIgc3R5bGU9InN0cm9rZTojMTgxODE4O3N0cm9rZS13aWR0aDoxLjA7Ii8+PHBhdGggZD0iTTIyNC4xMjUsMjkgTDIyNC4xMjUsMjcuMjUgTDIxOC44MTI1LDI3LjI1IFEyMTguODEyNSwyNy4yNSAyMTguODEyNSwyMy42ODc1IEwyMjMuMDYyNSwyMy42ODc1IEwyMjMuMDYyNSwyMS45Mzc1IEwyMTguODEyNSwyMS45Mzc1IEwyMTguODEyNSwxOS40Mzc1IEwyMjQuMTI1LDE5LjQzNzUgTDIyNC4xMjUsMTcuNjg3NSBMMjE3LjA2MjUsMTcuNjg3NSBRMjE3LjA2MjUsMTcuNjg3NSAyMTcuMDYyNSwyOSBMMjI0LjEyNSwyOSBaICIgZmlsbD0iIzAwMDAwMCIvPjx0ZXh0IGZpbGw9IiMwMDAwMDAiIGZvbnQtZmFtaWx5PSJzYW5zLXNlcmlmIiBmb250LXNpemU9IjE0IiBsZW5ndGhBZGp1c3Q9InNwYWNpbmciIHRleHRMZW5ndGg9IjcwIiB4PSIyMzcuNSIgeT0iMjguNzQyMiI+U3Vic2NyaWJlcjwvdGV4dD48bGluZSBzdHlsZT0ic3Ryb2tlOiMxODE4MTg7c3Ryb2tlLXdpZHRoOjAuNTsiIHgxPSIxOTMiIHgyPSIzMjMiIHkxPSIzOSIgeTI9IjM5Ii8+PHRleHQgZmlsbD0iIzAwMDAwMCIgZm9udC1mYW1pbHk9InNhbnMtc2VyaWYiIGZvbnQtc2l6ZT0iMTQiIGxlbmd0aEFkanVzdD0ic3BhY2luZyIgdGV4dExlbmd0aD0iMTQiIHg9IjE5OCIgeT0iNTYuMjM0NCI+UEs8L3RleHQ+PHRleHQgZmlsbD0iIzAwMDAwMCIgZm9udC1mYW1pbHk9InNhbnMtc2VyaWYiIGZvbnQtc2l6ZT0iMTQiIGxlbmd0aEFkanVzdD0ic3BhY2luZyIgdGV4dExlbmd0aD0iNDkiIHg9IjE5OCIgeT0iNzEuMjE4OCI+aWQ6IGludDwvdGV4dD48dGV4dCBmaWxsPSIjMDAwMDAwIiBmb250LWZhbWlseT0ic2Fucy1zZXJpZiIgZm9udC1zaXplPSIxNCIgbGVuZ3RoQWRqdXN0PSJzcGFjaW5nIiB0ZXh0TGVuZ3RoPSI5MiIgeD0iMTk4IiB5PSI4Ni4yMDMxIj5lbWFpbDogc3RyaW5nPC90ZXh0Pjx0ZXh0IGZpbGw9IiMwMDAwMDAiIGZvbnQtZmFtaWx5PSJzYW5zLXNlcmlmIiBmb250LXNpemU9IjE0IiBsZW5ndGhBZGp1c3Q9InNwYWNpbmciIHRleHRMZW5ndGg9IjEyMCIgeD0iMTk4IiB5PSIxMDEuMTg3NSI+Y3JlYXRlZDogZGF0ZXRpbWU8L3RleHQ+PGxpbmUgc3R5bGU9InN0cm9rZTojMTgxODE4O3N0cm9rZS13aWR0aDowLjU7IiB4MT0iMTkzIiB4Mj0iMzIzIiB5MT0iMTA2LjkzNzUiIHkyPSIxMDYuOTM3NSIvPjwvZz48IS0tbGluayBVc2VyIHRvIFByb2ZpbGUtLT48ZyBpZD0ibGlua19Vc2VyX1Byb2ZpbGUiPjxwYXRoIGNvZGVMaW5lPSI4MSIgZD0iTTIxNy42NCwzNjUuNTcgQzE5OC42NCwzOTcuNjMgMTc1LjQyLDQzNi44IDE1My43LDQ3My40NCAiIGZpbGw9Im5vbmUiIGlkPSJVc2VyLXRvLVByb2ZpbGUiIHN0eWxlPSJzdHJva2U6IzE4MTgxODtzdHJva2Utd2lkdGg6MS4wOyIvPjxwb2x5Z29uIGZpbGw9IiMxODE4MTgiIHBvaW50cz0iMTUxLjA2LDQ3Ny44OSwxNTkuMDg0Miw0NzIuMTc5MywxNTMuNjA1MSw0NzMuNTg2MiwxNTIuMTk4MSw0NjguMTA3MSwxNTEuMDYsNDc3Ljg5IiBzdHlsZT0ic3Ryb2tlOiMxODE4MTg7c3Ryb2tlLXdpZHRoOjEuMDsiLz48L2c+PCEtLWxpbmsgVXNlciB0byBCb29rbWFyay0tPjxnIGlkPSJsaW5rX1VzZXJfQm9va21hcmsiPjxwYXRoIGNvZGVMaW5lPSI4MiIgZD0iTTI5OC4zNiwzNjUuNTcgQzMzMC4xMyw0MTkuMTYgMzczLjY4LDQ5Mi42MiA0MDIuMzEsNTQwLjkyICIgZmlsbD0ibm9uZSIgaWQ9IlVzZXItdG8tQm9va21hcmsiIHN0eWxlPSJzdHJva2U6IzE4MTgxODtzdHJva2Utd2lkdGg6MS4wOyIvPjxwb2x5Z29uIGZpbGw9IiMxODE4MTgiIHBvaW50cz0iNDA0Ljg2LDU0NS4yMiw0MDMuNzIxOSw1MzUuNDM3MSw0MDIuMzE0OSw1NDAuOTE2MiwzOTYuODM1OCw1MzkuNTA5Myw0MDQuODYsNTQ1LjIyIiBzdHlsZT0ic3Ryb2tlOiMxODE4MTg7c3Ryb2tlLXdpZHRoOjEuMDsiLz48L2c+PCEtLWxpbmsgVXNlciB0byBDb21tZW50LS0+PGcgaWQ9ImxpbmtfVXNlcl9Db21tZW50Ij48cGF0aCBjb2RlTGluZT0iODMiIGQ9Ik0yNTgsMzY1LjU3IEMyNTgsNDE2LjIyIDI1OCw0ODQuNjMgMjU4LDUzMi43NiAiIGZpbGw9Im5vbmUiIGlkPSJVc2VyLXRvLUNvbW1lbnQiIHN0eWxlPSJzdHJva2U6IzE4MTgxODtzdHJva2Utd2lkdGg6MS4wOyIvPjxwb2x5Z29uIGZpbGw9IiMxODE4MTgiIHBvaW50cz0iMjU4LDUzNy45MywyNjIsNTI4LjkzLDI1OCw1MzIuOTMsMjU0LDUyOC45MywyNTgsNTM3LjkzIiBzdHlsZT0ic3Ryb2tlOiMxODE4MTg7c3Ryb2tlLXdpZHRoOjEuMDsiLz48L2c+PCEtLWxpbmsgUG9zdCB0byBDYXRlZ29yeS0tPjxnIGlkPSJsaW5rX1Bvc3RfQ2F0ZWdvcnkiPjxwYXRoIGNvZGVMaW5lPSI4NSIgZD0iTTU5Miw0MTguMTUgQzU5Miw0NTcuNjIgNTkyLDQ5OS42OSA1OTIsNTMyLjQ1ICIgZmlsbD0ibm9uZSIgaWQ9IlBvc3QtdG8tQ2F0ZWdvcnkiIHN0eWxlPSJzdHJva2U6IzE4MTgxODtzdHJva2Utd2lkdGg6MS4wOyIvPjxwb2x5Z29uIGZpbGw9IiMxODE4MTgiIHBvaW50cz0iNTkyLDUzNy42Miw1OTYsNTI4LjYyLDU5Miw1MzIuNjIsNTg4LDUyOC42Miw1OTIsNTM3LjYyIiBzdHlsZT0ic3Ryb2tlOiMxODE4MTg7c3Ryb2tlLXdpZHRoOjEuMDsiLz48L2c+PCEtLWxpbmsgUG9zdCB0byBUYWctLT48ZyBpZD0ibGlua19Qb3N0X1RhZyI+PHBhdGggY29kZUxpbmU9Ijg2IiBkPSJNNjQ2LjI2LDQxOC4xNSBDNjY0LjA5LDQ1Ny43OCA2ODMuMDksNTAwLjA0IDY5Ny44NSw1MzIuODUgIiBmaWxsPSJub25lIiBpZD0iUG9zdC10by1UYWciIHN0eWxlPSJzdHJva2U6IzE4MTgxODtzdHJva2Utd2lkdGg6MS4wOyIvPjxwb2x5Z29uIGZpbGw9IiMxODE4MTgiIHBvaW50cz0iNjk5Ljk5LDUzNy42Miw2OTkuOTMyOSw1MjcuNzcxMyw2OTcuOTMyOCw1MzMuMDYyOCw2OTIuNjQxMyw1MzEuMDYyOCw2OTkuOTksNTM3LjYyIiBzdHlsZT0ic3Ryb2tlOiMxODE4MTg7c3Ryb2tlLXdpZHRoOjEuMDsiLz48L2c+PCEtLWxpbmsgUG9zdCB0byBQb3N0Vmlldy0tPjxnIGlkPSJsaW5rX1Bvc3RfUG9zdFZpZXciPjxwYXRoIGNvZGVMaW5lPSI4NyIgZD0iTTY2OC42MywzNTcuMDMgQzcwNy45MSwzODkuOTcgNzU0Ljc2LDQzMy4yMiA3OTAsNDc4IEM4MDUuMDUsNDk3LjEzIDgxOC41MSw1MjAuNCA4MjksNTQwLjg1ICIgZmlsbD0ibm9uZSIgaWQ9IlBvc3QtdG8tUG9zdFZpZXciIHN0eWxlPSJzdHJva2U6IzE4MTgxODtzdHJva2Utd2lkdGg6MS4wOyIvPjxwb2x5Z29uIGZpbGw9IiMxODE4MTgiIHBvaW50cz0iODMxLjMzLDU0NS40Myw4MzAuODA3NCw1MzUuNTk1LDgyOS4wNTk3LDU0MC45NzUxLDgyMy42Nzk2LDUzOS4yMjc0LDgzMS4zMyw1NDUuNDMiIHN0eWxlPSJzdHJva2U6IzE4MTgxODtzdHJva2Utd2lkdGg6MS4wOyIvPjwvZz48IS0tbGluayBQb3N0IHRvIENvbW1lbnQtLT48ZyBpZD0ibGlua19Qb3N0X0NvbW1lbnQiPjxwYXRoIGNvZGVMaW5lPSI4OCIgZD0iTTUxNS40OCwzNDIuMjYgQzQ2Mi4yLDM3NS42MiAzOTEuNDEsNDI0LjQ5IDMzOCw0NzggQzMyMS41LDQ5NC41MyAzMDYsNTE0Ljc4IDI5My4xMiw1MzMuNTYgIiBmaWxsPSJub25lIiBpZD0iUG9zdC10by1Db21tZW50IiBzdHlsZT0ic3Ryb2tlOiMxODE4MTg7c3Ryb2tlLXdpZHRoOjEuMDsiLz48cG9seWdvbiBmaWxsPSIjMTgxODE4IiBwb2ludHM9IjI5MC4yNSw1MzcuNzksMjk4LjYxNiw1MzIuNTkzLDI5My4wNTk2LDUzMy42NTQsMjkxLjk5ODUsNTI4LjA5NzYsMjkwLjI1LDUzNy43OSIgc3R5bGU9InN0cm9rZTojMTgxODE4O3N0cm9rZS13aWR0aDoxLjA7Ii8+PC9nPjwhLS1saW5rIFBvc3QgdG8gQm9va21hcmstLT48ZyBpZD0ibGlua19Qb3N0X0Jvb2ttYXJrIj48cGF0aCBjb2RlTGluZT0iODkiIGQ9Ik01MjYuMjMsNDE4LjE1IEM1MDIuOCw0NjEuMTIgNDc3LjY5LDUwNy4xOCA0NTkuMjksNTQwLjk0ICIgZmlsbD0ibm9uZSIgaWQ9IlBvc3QtdG8tQm9va21hcmsiIHN0eWxlPSJzdHJva2U6IzE4MTgxODtzdHJva2Utd2lkdGg6MS4wOyIvPjxwb2x5Z29uIGZpbGw9IiMxODE4MTgiIHBvaW50cz0iNDU2Ljg1LDU0NS40MSw0NjQuNjc5NCw1MzkuNDM1MSw0NTkuMjUwMyw1NDEuMDIzOCw0NTcuNjYxNSw1MzUuNTk0Niw0NTYuODUsNTQ1LjQxIiBzdHlsZT0ic3Ryb2tlOiMxODE4MTg7c3Ryb2tlLXdpZHRoOjEuMDsiLz48L2c+PCEtLWxpbmsgU3Vic2NyaWJlciB0byBVc2VyLS0+PGcgaWQ9ImxpbmtfU3Vic2NyaWJlcl9Vc2VyIj48cGF0aCBjb2RlTGluZT0iOTEiIGQ9Ik0yNTgsMTE1LjI4IEMyNTgsMTQ2Ljk2IDI1OCwxODcuNjIgMjU4LDIyMi4yOSAiIGZpbGw9Im5vbmUiIGlkPSJTdWJzY3JpYmVyLXRvLVVzZXIiIHN0eWxlPSJzdHJva2U6IzE4MTgxODtzdHJva2Utd2lkdGg6MS4wOyIvPjxwb2x5Z29uIGZpbGw9IiMxODE4MTgiIHBvaW50cz0iMjU4LDIyNy4zNiwyNjIsMjE4LjM2LDI1OCwyMjIuMzYsMjU0LDIxOC4zNiwyNTgsMjI3LjM2IiBzdHlsZT0ic3Ryb2tlOiMxODE4MTg7c3Ryb2tlLXdpZHRoOjEuMDsiLz48L2c+PCEtLVNSQz1bZlBIMVJlQ200NE50ZEM4TncwTEdiNE1oQkFmODVMQkpJYnFYV21UdDU2bVpVbjI5Z2p3em5mMjA0eVljTVM2cC1GRmRwcFl4anlGaHVPanpFQjNpOXM3LVhvOWJnOGJqRGpiLWttc2V6UVVRQXFZUDh1alExV1lBT25zSFhabE42SWlZTUE1cmJEenpOVkRSLWZpYWt5NUNQYXM1RE9uLWlsdFNMZFdrcUFJQ3UzSXllVThvNWd6dTJPS25ubVhJWHFIVzh1UlE0UFVNZ3VYQWZFLXNZRXNZRmU5MDdTNnBRUWFqdWo4VDUwdWZQWGd3bDM2LXRwNG9Sd3NValZsMjJRSW52X0wteHo5cFRJaU5XWmptLU4tSHAzalRMbzZhRWZRdlpweUkzbENvdVptUk02ZDFqb25vSllhSl9lYkdtUjFkWkxXLVc1QzlqZzZ1MmQ1Z05PSXVLQVpwcVlXNWNjTzVndmhCMUhwNmFSaTBSc1JJWF8yOXFBcTdxVmlSTkN2N0VUSHVpQmNGYXZYOUZWbHpMVG1VcnhLTU92bTR0amwyYkhRQnd5TFVhQllfbXdEZWgxWi03UHdVamZVUkVPNkJvdWNDNElIOXNBRDBubHNVWURfSndVS0l6VW8zS1U4QWhiTUlNTEZ6R0xfcjNtMDBdLS0+PC9nPjwvc3ZnPg==;" parent="1" vertex="1">
            <mxGeometry x="740" y="832.25" width="611.93" height="482.5" as="geometry" />
          </mxCell>
        </UserObject>
        <mxCell id="5jvego66JOtNKPKq_Y0C-2" style="edgeStyle=none;rounded=0;orthogonalLoop=1;jettySize=auto;html=1;exitX=0;exitY=0.5;exitDx=0;exitDy=0;entryX=1;entryY=0.5;entryDx=0;entryDy=0;endArrow=none;endFill=0;" parent="1" source="5jvego66JOtNKPKq_Y0C-15" target="5jvego66JOtNKPKq_Y0C-16" edge="1">
          <mxGeometry relative="1" as="geometry" />
        </mxCell>
        <mxCell id="5jvego66JOtNKPKq_Y0C-3" style="edgeStyle=none;rounded=0;orthogonalLoop=1;jettySize=auto;html=1;exitX=0;exitY=0.5;exitDx=0;exitDy=0;entryX=1;entryY=0.5;entryDx=0;entryDy=0;endArrow=none;endFill=0;" parent="1" source="5jvego66JOtNKPKq_Y0C-15" target="5jvego66JOtNKPKq_Y0C-17" edge="1">
          <mxGeometry relative="1" as="geometry" />
        </mxCell>
        <mxCell id="5jvego66JOtNKPKq_Y0C-4" style="edgeStyle=none;rounded=0;orthogonalLoop=1;jettySize=auto;html=1;exitX=0;exitY=0.5;exitDx=0;exitDy=0;entryX=1;entryY=1;entryDx=0;entryDy=0;endArrow=none;endFill=0;" parent="1" source="5jvego66JOtNKPKq_Y0C-15" target="5jvego66JOtNKPKq_Y0C-18" edge="1">
          <mxGeometry relative="1" as="geometry" />
        </mxCell>
        <mxCell id="5jvego66JOtNKPKq_Y0C-5" style="edgeStyle=none;rounded=0;orthogonalLoop=1;jettySize=auto;html=1;exitX=0;exitY=0.5;exitDx=0;exitDy=0;endArrow=none;endFill=0;" parent="1" source="5jvego66JOtNKPKq_Y0C-15" target="5jvego66JOtNKPKq_Y0C-19" edge="1">
          <mxGeometry relative="1" as="geometry" />
        </mxCell>
        <mxCell id="5jvego66JOtNKPKq_Y0C-13" style="edgeStyle=orthogonalEdgeStyle;rounded=0;orthogonalLoop=1;jettySize=auto;html=1;exitX=0.5;exitY=0;exitDx=0;exitDy=0;endArrow=none;endFill=0;startArrow=ERone;startFill=0;" parent="1" source="5jvego66JOtNKPKq_Y0C-15" target="5jvego66JOtNKPKq_Y0C-25" edge="1">
          <mxGeometry relative="1" as="geometry" />
        </mxCell>
        <mxCell id="5jvego66JOtNKPKq_Y0C-15" value="profile" style="rounded=0;whiteSpace=wrap;html=1;" parent="1" vertex="1">
          <mxGeometry x="172" y="1146" width="80" height="40" as="geometry" />
        </mxCell>
        <mxCell id="5jvego66JOtNKPKq_Y0C-16" value="&lt;u&gt;id&lt;/u&gt;" style="ellipse;whiteSpace=wrap;html=1;" parent="1" vertex="1">
          <mxGeometry x="42.5" y="1113.5" width="70" height="30" as="geometry" />
        </mxCell>
        <mxCell id="5jvego66JOtNKPKq_Y0C-17" value="bio" style="ellipse;whiteSpace=wrap;html=1;" parent="1" vertex="1">
          <mxGeometry x="32.5" y="1137.5" width="70" height="30" as="geometry" />
        </mxCell>
        <mxCell id="5jvego66JOtNKPKq_Y0C-18" value="image" style="ellipse;whiteSpace=wrap;html=1;" parent="1" vertex="1">
          <mxGeometry x="27.5" y="1161.5" width="70" height="30" as="geometry" />
        </mxCell>
        <mxCell id="5jvego66JOtNKPKq_Y0C-19" value="bio" style="ellipse;whiteSpace=wrap;html=1;" parent="1" vertex="1">
          <mxGeometry x="32.5" y="1198" width="70" height="30" as="geometry" />
        </mxCell>
        <mxCell id="5jvego66JOtNKPKq_Y0C-26" style="edgeStyle=orthogonalEdgeStyle;rounded=0;orthogonalLoop=1;jettySize=auto;html=1;exitX=0.5;exitY=0;exitDx=0;exitDy=0;endArrow=ERone;endFill=0;" parent="1" source="5jvego66JOtNKPKq_Y0C-25" target="hk00Rdq8uAhm8ICl378K-7" edge="1">
          <mxGeometry relative="1" as="geometry" />
        </mxCell>
        <mxCell id="5jvego66JOtNKPKq_Y0C-25" value="has" style="rhombus;whiteSpace=wrap;html=1;" parent="1" vertex="1">
          <mxGeometry x="177" y="1062" width="70" height="40" as="geometry" />
        </mxCell>
        <mxCell id="5jvego66JOtNKPKq_Y0C-30" style="edgeStyle=none;rounded=0;orthogonalLoop=1;jettySize=auto;html=1;exitX=0;exitY=0.5;exitDx=0;exitDy=0;entryX=1;entryY=0.5;entryDx=0;entryDy=0;endArrow=none;endFill=0;" parent="1" source="5jvego66JOtNKPKq_Y0C-35" target="5jvego66JOtNKPKq_Y0C-36" edge="1">
          <mxGeometry relative="1" as="geometry" />
        </mxCell>
        <mxCell id="5jvego66JOtNKPKq_Y0C-31" style="edgeStyle=none;rounded=0;orthogonalLoop=1;jettySize=auto;html=1;exitX=0;exitY=0.5;exitDx=0;exitDy=0;entryX=1;entryY=0.5;entryDx=0;entryDy=0;endArrow=none;endFill=0;" parent="1" source="5jvego66JOtNKPKq_Y0C-35" target="5jvego66JOtNKPKq_Y0C-37" edge="1">
          <mxGeometry relative="1" as="geometry" />
        </mxCell>
        <mxCell id="5jvego66JOtNKPKq_Y0C-32" style="edgeStyle=none;rounded=0;orthogonalLoop=1;jettySize=auto;html=1;exitX=0;exitY=0.5;exitDx=0;exitDy=0;entryX=1;entryY=1;entryDx=0;entryDy=0;endArrow=none;endFill=0;" parent="1" source="5jvego66JOtNKPKq_Y0C-35" target="5jvego66JOtNKPKq_Y0C-38" edge="1">
          <mxGeometry relative="1" as="geometry" />
        </mxCell>
        <mxCell id="5jvego66JOtNKPKq_Y0C-35" value="subscriber" style="rounded=0;whiteSpace=wrap;html=1;" parent="1" vertex="1">
          <mxGeometry x="185" y="782" width="80" height="40" as="geometry" />
        </mxCell>
        <mxCell id="5jvego66JOtNKPKq_Y0C-36" value="&lt;u&gt;id&lt;/u&gt;" style="ellipse;whiteSpace=wrap;html=1;" parent="1" vertex="1">
          <mxGeometry x="55.5" y="757.5" width="70" height="30" as="geometry" />
        </mxCell>
        <mxCell id="5jvego66JOtNKPKq_Y0C-37" value="email" style="ellipse;whiteSpace=wrap;html=1;" parent="1" vertex="1">
          <mxGeometry x="53.5" y="787.5" width="70" height="30" as="geometry" />
        </mxCell>
        <mxCell id="5jvego66JOtNKPKq_Y0C-38" value="created" style="ellipse;whiteSpace=wrap;html=1;" parent="1" vertex="1">
          <mxGeometry x="55.5" y="811.5" width="70" height="30" as="geometry" />
        </mxCell>
        <mxCell id="5jvego66JOtNKPKq_Y0C-40" style="edgeStyle=none;rounded=0;orthogonalLoop=1;jettySize=auto;html=1;exitX=1;exitY=0.5;exitDx=0;exitDy=0;entryX=0;entryY=1;entryDx=0;entryDy=0;endArrow=none;endFill=0;" parent="1" target="5jvego66JOtNKPKq_Y0C-53" edge="1">
          <mxGeometry relative="1" as="geometry">
            <mxPoint x="461" y="1015" as="sourcePoint" />
          </mxGeometry>
        </mxCell>
        <mxCell id="5jvego66JOtNKPKq_Y0C-41" style="edgeStyle=none;rounded=0;orthogonalLoop=1;jettySize=auto;html=1;exitX=1;exitY=0.5;exitDx=0;exitDy=0;entryX=0;entryY=1;entryDx=0;entryDy=0;endArrow=none;endFill=0;" parent="1" target="5jvego66JOtNKPKq_Y0C-55" edge="1">
          <mxGeometry relative="1" as="geometry">
            <mxPoint x="461" y="1015" as="sourcePoint" />
          </mxGeometry>
        </mxCell>
        <mxCell id="5jvego66JOtNKPKq_Y0C-42" style="edgeStyle=none;rounded=0;orthogonalLoop=1;jettySize=auto;html=1;exitX=1;exitY=0.5;exitDx=0;exitDy=0;endArrow=none;endFill=0;" parent="1" target="5jvego66JOtNKPKq_Y0C-56" edge="1">
          <mxGeometry relative="1" as="geometry">
            <mxPoint x="461" y="1015" as="sourcePoint" />
          </mxGeometry>
        </mxCell>
        <mxCell id="5jvego66JOtNKPKq_Y0C-43" style="edgeStyle=none;rounded=0;orthogonalLoop=1;jettySize=auto;html=1;exitX=1;exitY=0.5;exitDx=0;exitDy=0;endArrow=none;endFill=0;" parent="1" target="5jvego66JOtNKPKq_Y0C-57" edge="1">
          <mxGeometry relative="1" as="geometry">
            <mxPoint x="461" y="1015" as="sourcePoint" />
          </mxGeometry>
        </mxCell>
        <mxCell id="5jvego66JOtNKPKq_Y0C-44" style="edgeStyle=none;rounded=0;orthogonalLoop=1;jettySize=auto;html=1;exitX=1;exitY=0.5;exitDx=0;exitDy=0;entryX=0;entryY=0.5;entryDx=0;entryDy=0;endArrow=none;endFill=0;" parent="1" target="5jvego66JOtNKPKq_Y0C-58" edge="1">
          <mxGeometry relative="1" as="geometry">
            <mxPoint x="461" y="1015" as="sourcePoint" />
          </mxGeometry>
        </mxCell>
        <mxCell id="5jvego66JOtNKPKq_Y0C-45" style="edgeStyle=none;rounded=0;orthogonalLoop=1;jettySize=auto;html=1;exitX=1;exitY=0.5;exitDx=0;exitDy=0;entryX=0;entryY=0.5;entryDx=0;entryDy=0;endArrow=none;endFill=0;" parent="1" target="5jvego66JOtNKPKq_Y0C-59" edge="1">
          <mxGeometry relative="1" as="geometry">
            <mxPoint x="461" y="1015" as="sourcePoint" />
          </mxGeometry>
        </mxCell>
        <mxCell id="5jvego66JOtNKPKq_Y0C-46" style="edgeStyle=none;rounded=0;orthogonalLoop=1;jettySize=auto;html=1;exitX=1;exitY=0.5;exitDx=0;exitDy=0;entryX=0;entryY=0.5;entryDx=0;entryDy=0;endArrow=none;endFill=0;" parent="1" target="5jvego66JOtNKPKq_Y0C-60" edge="1">
          <mxGeometry relative="1" as="geometry">
            <mxPoint x="461" y="1015" as="sourcePoint" />
          </mxGeometry>
        </mxCell>
        <mxCell id="5jvego66JOtNKPKq_Y0C-47" style="edgeStyle=none;rounded=0;orthogonalLoop=1;jettySize=auto;html=1;exitX=1;exitY=0.5;exitDx=0;exitDy=0;entryX=0;entryY=0.5;entryDx=0;entryDy=0;endArrow=none;endFill=0;" parent="1" target="5jvego66JOtNKPKq_Y0C-61" edge="1">
          <mxGeometry relative="1" as="geometry">
            <mxPoint x="461" y="1015" as="sourcePoint" />
          </mxGeometry>
        </mxCell>
        <mxCell id="5jvego66JOtNKPKq_Y0C-48" style="edgeStyle=none;rounded=0;orthogonalLoop=1;jettySize=auto;html=1;exitX=1;exitY=0.5;exitDx=0;exitDy=0;entryX=0;entryY=0.5;entryDx=0;entryDy=0;endArrow=none;endFill=0;" parent="1" target="5jvego66JOtNKPKq_Y0C-62" edge="1">
          <mxGeometry relative="1" as="geometry">
            <mxPoint x="461" y="1015" as="sourcePoint" />
          </mxGeometry>
        </mxCell>
        <mxCell id="5jvego66JOtNKPKq_Y0C-49" style="edgeStyle=none;rounded=0;orthogonalLoop=1;jettySize=auto;html=1;exitX=1;exitY=0.5;exitDx=0;exitDy=0;entryX=0;entryY=0.5;entryDx=0;entryDy=0;endArrow=none;endFill=0;" parent="1" target="5jvego66JOtNKPKq_Y0C-63" edge="1">
          <mxGeometry relative="1" as="geometry">
            <mxPoint x="461" y="1015" as="sourcePoint" />
          </mxGeometry>
        </mxCell>
        <mxCell id="5jvego66JOtNKPKq_Y0C-50" style="edgeStyle=none;rounded=0;orthogonalLoop=1;jettySize=auto;html=1;exitX=1;exitY=0.5;exitDx=0;exitDy=0;entryX=0;entryY=0.5;entryDx=0;entryDy=0;endArrow=none;endFill=0;" parent="1" target="5jvego66JOtNKPKq_Y0C-64" edge="1">
          <mxGeometry relative="1" as="geometry">
            <mxPoint x="461" y="1015" as="sourcePoint" />
          </mxGeometry>
        </mxCell>
        <mxCell id="5jvego66JOtNKPKq_Y0C-112" style="edgeStyle=orthogonalEdgeStyle;rounded=0;orthogonalLoop=1;jettySize=auto;html=1;exitX=0.5;exitY=1;exitDx=0;exitDy=0;entryX=0.5;entryY=0;entryDx=0;entryDy=0;endArrow=none;endFill=0;startArrow=ERoneToMany;startFill=0;" parent="1" source="5jvego66JOtNKPKq_Y0C-52" target="5jvego66JOtNKPKq_Y0C-107" edge="1">
          <mxGeometry relative="1" as="geometry" />
        </mxCell>
        <mxCell id="5jvego66JOtNKPKq_Y0C-52" value="Post" style="rounded=0;whiteSpace=wrap;html=1;" parent="1" vertex="1">
          <mxGeometry x="381" y="998" width="80" height="40" as="geometry" />
        </mxCell>
        <mxCell id="5jvego66JOtNKPKq_Y0C-53" value="&lt;u&gt;id&lt;/u&gt;" style="ellipse;whiteSpace=wrap;html=1;" parent="1" vertex="1">
          <mxGeometry x="496" y="875" width="70" height="30" as="geometry" />
        </mxCell>
        <mxCell id="5jvego66JOtNKPKq_Y0C-54" value="title" style="ellipse;whiteSpace=wrap;html=1;" parent="1" vertex="1">
          <mxGeometry x="518" y="897" width="70" height="30" as="geometry" />
        </mxCell>
        <mxCell id="5jvego66JOtNKPKq_Y0C-55" value="image" style="ellipse;whiteSpace=wrap;html=1;" parent="1" vertex="1">
          <mxGeometry x="538" y="915" width="70" height="30" as="geometry" />
        </mxCell>
        <mxCell id="5jvego66JOtNKPKq_Y0C-56" value="slug" style="ellipse;whiteSpace=wrap;html=1;" parent="1" vertex="1">
          <mxGeometry x="548" y="938" width="70" height="30" as="geometry" />
        </mxCell>
        <mxCell id="5jvego66JOtNKPKq_Y0C-57" value="body" style="ellipse;whiteSpace=wrap;html=1;" parent="1" vertex="1">
          <mxGeometry x="557" y="962" width="70" height="30" as="geometry" />
        </mxCell>
        <mxCell id="5jvego66JOtNKPKq_Y0C-58" value="cretaed_at" style="ellipse;whiteSpace=wrap;html=1;" parent="1" vertex="1">
          <mxGeometry x="566" y="987" width="110" height="30" as="geometry" />
        </mxCell>
        <mxCell id="5jvego66JOtNKPKq_Y0C-59" value="updated_at" style="ellipse;whiteSpace=wrap;html=1;" parent="1" vertex="1">
          <mxGeometry x="566" y="1010" width="90" height="30" as="geometry" />
        </mxCell>
        <mxCell id="5jvego66JOtNKPKq_Y0C-60" value="excerpt" style="ellipse;whiteSpace=wrap;html=1;" parent="1" vertex="1">
          <mxGeometry x="572" y="1034.5" width="70" height="30" as="geometry" />
        </mxCell>
        <mxCell id="5jvego66JOtNKPKq_Y0C-61" value="status" style="ellipse;whiteSpace=wrap;html=1;" parent="1" vertex="1">
          <mxGeometry x="566" y="1058.5" width="70" height="30" as="geometry" />
        </mxCell>
        <mxCell id="5jvego66JOtNKPKq_Y0C-62" value="admin_comment" style="ellipse;whiteSpace=wrap;html=1;" parent="1" vertex="1">
          <mxGeometry x="572" y="1082.5" width="98" height="30" as="geometry" />
        </mxCell>
        <mxCell id="5jvego66JOtNKPKq_Y0C-63" value="flag_comment" style="ellipse;whiteSpace=wrap;html=1;" parent="1" vertex="1">
          <mxGeometry x="556" y="1104.5" width="104" height="30" as="geometry" />
        </mxCell>
        <mxCell id="5jvego66JOtNKPKq_Y0C-64" value="email_sent" style="ellipse;whiteSpace=wrap;html=1;" parent="1" vertex="1">
          <mxGeometry x="548" y="1133" width="70" height="30" as="geometry" />
        </mxCell>
        <mxCell id="5jvego66JOtNKPKq_Y0C-67" style="edgeStyle=none;rounded=0;orthogonalLoop=1;jettySize=auto;html=1;exitX=1;exitY=0.5;exitDx=0;exitDy=0;entryX=0.114;entryY=0.667;entryDx=0;entryDy=0;entryPerimeter=0;endArrow=none;endFill=0;" parent="1" target="5jvego66JOtNKPKq_Y0C-54" edge="1">
          <mxGeometry relative="1" as="geometry">
            <mxPoint x="461" y="1015" as="sourcePoint" />
          </mxGeometry>
        </mxCell>
        <mxCell id="5jvego66JOtNKPKq_Y0C-69" style="edgeStyle=orthogonalEdgeStyle;rounded=0;orthogonalLoop=1;jettySize=auto;html=1;exitX=1;exitY=0.5;exitDx=0;exitDy=0;endArrow=ERoneToMany;endFill=0;" parent="1" source="5jvego66JOtNKPKq_Y0C-70" target="5jvego66JOtNKPKq_Y0C-52" edge="1">
          <mxGeometry relative="1" as="geometry" />
        </mxCell>
        <mxCell id="5jvego66JOtNKPKq_Y0C-122" style="edgeStyle=orthogonalEdgeStyle;rounded=0;orthogonalLoop=1;jettySize=auto;html=1;exitX=0;exitY=0.5;exitDx=0;exitDy=0;entryX=1;entryY=0.5;entryDx=0;entryDy=0;endArrow=ERone;endFill=0;" parent="1" source="5jvego66JOtNKPKq_Y0C-70" target="hk00Rdq8uAhm8ICl378K-7" edge="1">
          <mxGeometry relative="1" as="geometry" />
        </mxCell>
        <mxCell id="5jvego66JOtNKPKq_Y0C-123" style="edgeStyle=orthogonalEdgeStyle;rounded=0;orthogonalLoop=1;jettySize=auto;html=1;exitX=0.5;exitY=1;exitDx=0;exitDy=0;entryX=0;entryY=0;entryDx=0;entryDy=0;endArrow=ERoneToMany;endFill=0;" parent="1" source="5jvego66JOtNKPKq_Y0C-70" target="5jvego66JOtNKPKq_Y0C-104" edge="1">
          <mxGeometry relative="1" as="geometry">
            <Array as="points">
              <mxPoint x="345" y="1114" />
              <mxPoint x="390" y="1114" />
              <mxPoint x="390" y="1267" />
            </Array>
          </mxGeometry>
        </mxCell>
        <mxCell id="5jvego66JOtNKPKq_Y0C-70" value="created_by" style="rhombus;whiteSpace=wrap;html=1;" parent="1" vertex="1">
          <mxGeometry x="300" y="922" width="90" height="40" as="geometry" />
        </mxCell>
        <mxCell id="5jvego66JOtNKPKq_Y0C-78" style="edgeStyle=orthogonalEdgeStyle;rounded=0;orthogonalLoop=1;jettySize=auto;html=1;exitX=0.5;exitY=0;exitDx=0;exitDy=0;entryX=0.5;entryY=1;entryDx=0;entryDy=0;endArrow=none;endFill=0;" parent="1" target="5jvego66JOtNKPKq_Y0C-75" edge="1">
          <mxGeometry relative="1" as="geometry">
            <mxPoint x="326" y="768.5" as="sourcePoint" />
          </mxGeometry>
        </mxCell>
        <mxCell id="5jvego66JOtNKPKq_Y0C-74" value="follow" style="rounded=0;whiteSpace=wrap;html=1;" parent="1" vertex="1">
          <mxGeometry x="287" y="768.5" width="80" height="40" as="geometry" />
        </mxCell>
        <mxCell id="5jvego66JOtNKPKq_Y0C-75" value="&lt;u&gt;id&lt;/u&gt;" style="ellipse;whiteSpace=wrap;html=1;" parent="1" vertex="1">
          <mxGeometry x="291" y="700" width="70" height="30" as="geometry" />
        </mxCell>
        <mxCell id="5jvego66JOtNKPKq_Y0C-79" value="category" style="rounded=0;whiteSpace=wrap;html=1;" parent="1" vertex="1">
          <mxGeometry x="154" y="1267.5" width="80" height="40" as="geometry" />
        </mxCell>
        <mxCell id="5jvego66JOtNKPKq_Y0C-85" style="rounded=0;orthogonalLoop=1;jettySize=auto;html=1;exitX=0.5;exitY=1;exitDx=0;exitDy=0;endArrow=none;endFill=0;" parent="1" source="5jvego66JOtNKPKq_Y0C-80" target="5jvego66JOtNKPKq_Y0C-83" edge="1">
          <mxGeometry relative="1" as="geometry" />
        </mxCell>
        <mxCell id="5jvego66JOtNKPKq_Y0C-86" style="edgeStyle=none;rounded=0;orthogonalLoop=1;jettySize=auto;html=1;exitX=0.5;exitY=1;exitDx=0;exitDy=0;endArrow=none;endFill=0;" parent="1" source="5jvego66JOtNKPKq_Y0C-80" target="5jvego66JOtNKPKq_Y0C-84" edge="1">
          <mxGeometry relative="1" as="geometry" />
        </mxCell>
        <mxCell id="5jvego66JOtNKPKq_Y0C-80" value="tag" style="rounded=0;whiteSpace=wrap;html=1;" parent="1" vertex="1">
          <mxGeometry x="275" y="1266.5" width="80" height="40" as="geometry" />
        </mxCell>
        <mxCell id="5jvego66JOtNKPKq_Y0C-81" value="name" style="ellipse;whiteSpace=wrap;html=1;" parent="1" vertex="1">
          <mxGeometry x="77" y="1354" width="70" height="30" as="geometry" />
        </mxCell>
        <mxCell id="5jvego66JOtNKPKq_Y0C-82" value="&lt;u&gt;id&lt;/u&gt;" style="ellipse;whiteSpace=wrap;html=1;" parent="1" vertex="1">
          <mxGeometry x="159" y="1354" width="70" height="30" as="geometry" />
        </mxCell>
        <mxCell id="5jvego66JOtNKPKq_Y0C-83" value="name" style="ellipse;whiteSpace=wrap;html=1;" parent="1" vertex="1">
          <mxGeometry x="250" y="1354" width="70" height="30" as="geometry" />
        </mxCell>
        <mxCell id="5jvego66JOtNKPKq_Y0C-84" value="&lt;u&gt;id&lt;/u&gt;" style="ellipse;whiteSpace=wrap;html=1;" parent="1" vertex="1">
          <mxGeometry x="321" y="1354" width="70" height="30" as="geometry" />
        </mxCell>
        <mxCell id="5jvego66JOtNKPKq_Y0C-87" style="edgeStyle=none;rounded=0;orthogonalLoop=1;jettySize=auto;html=1;exitX=0.5;exitY=1;exitDx=0;exitDy=0;entryX=0.671;entryY=0.067;entryDx=0;entryDy=0;entryPerimeter=0;endArrow=none;endFill=0;" parent="1" source="5jvego66JOtNKPKq_Y0C-79" target="5jvego66JOtNKPKq_Y0C-81" edge="1">
          <mxGeometry relative="1" as="geometry" />
        </mxCell>
        <mxCell id="5jvego66JOtNKPKq_Y0C-88" style="edgeStyle=none;rounded=0;orthogonalLoop=1;jettySize=auto;html=1;exitX=0.5;exitY=1;exitDx=0;exitDy=0;entryX=0.6;entryY=0.033;entryDx=0;entryDy=0;entryPerimeter=0;endArrow=none;endFill=0;" parent="1" source="5jvego66JOtNKPKq_Y0C-79" target="5jvego66JOtNKPKq_Y0C-82" edge="1">
          <mxGeometry relative="1" as="geometry" />
        </mxCell>
        <mxCell id="5jvego66JOtNKPKq_Y0C-95" style="edgeStyle=none;rounded=0;orthogonalLoop=1;jettySize=auto;html=1;exitX=0.5;exitY=0;exitDx=0;exitDy=0;endArrow=none;endFill=0;" parent="1" source="5jvego66JOtNKPKq_Y0C-90" target="5jvego66JOtNKPKq_Y0C-91" edge="1">
          <mxGeometry relative="1" as="geometry" />
        </mxCell>
        <mxCell id="5jvego66JOtNKPKq_Y0C-96" style="edgeStyle=none;rounded=0;orthogonalLoop=1;jettySize=auto;html=1;exitX=0.5;exitY=0;exitDx=0;exitDy=0;entryX=0.5;entryY=1;entryDx=0;entryDy=0;endArrow=none;endFill=0;" parent="1" source="5jvego66JOtNKPKq_Y0C-90" target="5jvego66JOtNKPKq_Y0C-94" edge="1">
          <mxGeometry relative="1" as="geometry" />
        </mxCell>
        <mxCell id="5jvego66JOtNKPKq_Y0C-126" style="edgeStyle=orthogonalEdgeStyle;rounded=0;orthogonalLoop=1;jettySize=auto;html=1;exitX=0.5;exitY=1;exitDx=0;exitDy=0;endArrow=none;endFill=0;startArrow=ERoneToMany;startFill=0;" parent="1" source="5jvego66JOtNKPKq_Y0C-90" target="5jvego66JOtNKPKq_Y0C-124" edge="1">
          <mxGeometry relative="1" as="geometry">
            <mxPoint x="435" y="847" as="targetPoint" />
          </mxGeometry>
        </mxCell>
        <mxCell id="5jvego66JOtNKPKq_Y0C-90" value="bookmark" style="rounded=0;whiteSpace=wrap;html=1;" parent="1" vertex="1">
          <mxGeometry x="435" y="768.5" width="80" height="40" as="geometry" />
        </mxCell>
        <mxCell id="5jvego66JOtNKPKq_Y0C-91" value="&lt;u&gt;id&lt;/u&gt;" style="ellipse;whiteSpace=wrap;html=1;" parent="1" vertex="1">
          <mxGeometry x="391" y="700" width="70" height="30" as="geometry" />
        </mxCell>
        <mxCell id="5jvego66JOtNKPKq_Y0C-94" value="&lt;u&gt;date&lt;/u&gt;" style="ellipse;whiteSpace=wrap;html=1;" parent="1" vertex="1">
          <mxGeometry x="480" y="700" width="70" height="30" as="geometry" />
        </mxCell>
        <mxCell id="5jvego66JOtNKPKq_Y0C-102" style="rounded=0;orthogonalLoop=1;jettySize=auto;html=1;exitX=0.5;exitY=1;exitDx=0;exitDy=0;endArrow=none;endFill=0;" parent="1" source="5jvego66JOtNKPKq_Y0C-104" target="5jvego66JOtNKPKq_Y0C-105" edge="1">
          <mxGeometry relative="1" as="geometry" />
        </mxCell>
        <mxCell id="5jvego66JOtNKPKq_Y0C-103" style="edgeStyle=none;rounded=0;orthogonalLoop=1;jettySize=auto;html=1;exitX=0.5;exitY=1;exitDx=0;exitDy=0;endArrow=none;endFill=0;" parent="1" source="5jvego66JOtNKPKq_Y0C-104" target="5jvego66JOtNKPKq_Y0C-106" edge="1">
          <mxGeometry relative="1" as="geometry" />
        </mxCell>
        <mxCell id="GyiRECZgV6PWUkBDIfNX-4" style="edgeStyle=none;rounded=0;orthogonalLoop=1;jettySize=auto;html=1;exitX=0.5;exitY=1;exitDx=0;exitDy=0;entryX=0.5;entryY=0;entryDx=0;entryDy=0;endArrow=none;endFill=0;" edge="1" parent="1" source="5jvego66JOtNKPKq_Y0C-104" target="GyiRECZgV6PWUkBDIfNX-1">
          <mxGeometry relative="1" as="geometry" />
        </mxCell>
        <mxCell id="5jvego66JOtNKPKq_Y0C-104" value="comment" style="rounded=0;whiteSpace=wrap;html=1;" parent="1" vertex="1">
          <mxGeometry x="440" y="1266.5" width="80" height="40" as="geometry" />
        </mxCell>
        <mxCell id="5jvego66JOtNKPKq_Y0C-105" value="body" style="ellipse;whiteSpace=wrap;html=1;" parent="1" vertex="1">
          <mxGeometry x="474" y="1350" width="70" height="30" as="geometry" />
        </mxCell>
        <mxCell id="5jvego66JOtNKPKq_Y0C-106" value="&lt;u&gt;id&lt;/u&gt;" style="ellipse;whiteSpace=wrap;html=1;" parent="1" vertex="1">
          <mxGeometry x="532" y="1330" width="70" height="30" as="geometry" />
        </mxCell>
        <mxCell id="5jvego66JOtNKPKq_Y0C-113" style="edgeStyle=orthogonalEdgeStyle;rounded=0;orthogonalLoop=1;jettySize=auto;html=1;exitX=0.5;exitY=1;exitDx=0;exitDy=0;entryX=0.5;entryY=0;entryDx=0;entryDy=0;endArrow=ERoneToMany;endFill=0;" parent="1" source="5jvego66JOtNKPKq_Y0C-107" target="5jvego66JOtNKPKq_Y0C-80" edge="1">
          <mxGeometry relative="1" as="geometry" />
        </mxCell>
        <mxCell id="5jvego66JOtNKPKq_Y0C-114" style="edgeStyle=orthogonalEdgeStyle;rounded=0;orthogonalLoop=1;jettySize=auto;html=1;exitX=0.5;exitY=1;exitDx=0;exitDy=0;endArrow=ERone;endFill=0;" parent="1" source="5jvego66JOtNKPKq_Y0C-107" target="5jvego66JOtNKPKq_Y0C-79" edge="1">
          <mxGeometry relative="1" as="geometry" />
        </mxCell>
        <mxCell id="5jvego66JOtNKPKq_Y0C-107" value="belong_to" style="rhombus;whiteSpace=wrap;html=1;" parent="1" vertex="1">
          <mxGeometry x="285" y="1143.5" width="95" height="40" as="geometry" />
        </mxCell>
        <mxCell id="5jvego66JOtNKPKq_Y0C-118" style="edgeStyle=orthogonalEdgeStyle;rounded=0;orthogonalLoop=1;jettySize=auto;html=1;exitX=0.5;exitY=1;exitDx=0;exitDy=0;endArrow=ERoneToMany;endFill=0;" parent="1" source="5jvego66JOtNKPKq_Y0C-116" target="5jvego66JOtNKPKq_Y0C-104" edge="1">
          <mxGeometry relative="1" as="geometry" />
        </mxCell>
        <mxCell id="5jvego66JOtNKPKq_Y0C-119" style="edgeStyle=orthogonalEdgeStyle;rounded=0;orthogonalLoop=1;jettySize=auto;html=1;exitX=0.5;exitY=0;exitDx=0;exitDy=0;entryX=0.75;entryY=1;entryDx=0;entryDy=0;endArrow=ERone;endFill=0;" parent="1" source="5jvego66JOtNKPKq_Y0C-116" target="5jvego66JOtNKPKq_Y0C-52" edge="1">
          <mxGeometry relative="1" as="geometry" />
        </mxCell>
        <mxCell id="5jvego66JOtNKPKq_Y0C-116" value="has" style="rhombus;whiteSpace=wrap;html=1;" parent="1" vertex="1">
          <mxGeometry x="402" y="1146" width="95" height="40" as="geometry" />
        </mxCell>
        <mxCell id="5jvego66JOtNKPKq_Y0C-125" style="edgeStyle=orthogonalEdgeStyle;rounded=0;orthogonalLoop=1;jettySize=auto;html=1;exitX=0.5;exitY=1;exitDx=0;exitDy=0;entryX=0.75;entryY=0;entryDx=0;entryDy=0;endArrow=ERone;endFill=0;" parent="1" source="5jvego66JOtNKPKq_Y0C-124" target="5jvego66JOtNKPKq_Y0C-52" edge="1">
          <mxGeometry relative="1" as="geometry" />
        </mxCell>
        <mxCell id="5jvego66JOtNKPKq_Y0C-124" value="post" style="rhombus;whiteSpace=wrap;html=1;" parent="1" vertex="1">
          <mxGeometry x="390" y="894" width="90" height="40" as="geometry" />
        </mxCell>
        <mxCell id="5jvego66JOtNKPKq_Y0C-130" style="edgeStyle=orthogonalEdgeStyle;rounded=0;orthogonalLoop=1;jettySize=auto;html=1;exitX=0.5;exitY=1;exitDx=0;exitDy=0;endArrow=ERone;endFill=0;" parent="1" source="5jvego66JOtNKPKq_Y0C-127" target="hk00Rdq8uAhm8ICl378K-7" edge="1">
          <mxGeometry relative="1" as="geometry" />
        </mxCell>
        <mxCell id="5jvego66JOtNKPKq_Y0C-131" style="edgeStyle=orthogonalEdgeStyle;rounded=0;orthogonalLoop=1;jettySize=auto;html=1;exitX=0.5;exitY=0;exitDx=0;exitDy=0;endArrow=ERone;endFill=0;" parent="1" source="5jvego66JOtNKPKq_Y0C-127" target="5jvego66JOtNKPKq_Y0C-74" edge="1">
          <mxGeometry relative="1" as="geometry" />
        </mxCell>
        <mxCell id="5jvego66JOtNKPKq_Y0C-127" value="follower" style="rhombus;whiteSpace=wrap;html=1;" parent="1" vertex="1">
          <mxGeometry x="152" y="870" width="90" height="40" as="geometry" />
        </mxCell>
        <mxCell id="5jvego66JOtNKPKq_Y0C-134" style="edgeStyle=orthogonalEdgeStyle;rounded=0;orthogonalLoop=1;jettySize=auto;html=1;exitX=0.5;exitY=0;exitDx=0;exitDy=0;entryX=0.75;entryY=1;entryDx=0;entryDy=0;endArrow=ERone;endFill=0;" parent="1" source="5jvego66JOtNKPKq_Y0C-129" target="5jvego66JOtNKPKq_Y0C-74" edge="1">
          <mxGeometry relative="1" as="geometry">
            <Array as="points">
              <mxPoint x="347" y="865" />
            </Array>
          </mxGeometry>
        </mxCell>
        <mxCell id="5jvego66JOtNKPKq_Y0C-135" style="edgeStyle=orthogonalEdgeStyle;rounded=0;orthogonalLoop=1;jettySize=auto;html=1;exitX=0.5;exitY=1;exitDx=0;exitDy=0;entryX=0.75;entryY=0;entryDx=0;entryDy=0;endArrow=ERone;endFill=0;" parent="1" source="5jvego66JOtNKPKq_Y0C-129" target="hk00Rdq8uAhm8ICl378K-7" edge="1">
          <mxGeometry relative="1" as="geometry">
            <Array as="points">
              <mxPoint x="325" y="920" />
              <mxPoint x="232" y="920" />
            </Array>
          </mxGeometry>
        </mxCell>
        <mxCell id="5jvego66JOtNKPKq_Y0C-129" value="followed_by" style="rhombus;whiteSpace=wrap;html=1;" parent="1" vertex="1">
          <mxGeometry x="280" y="865" width="90" height="40" as="geometry" />
        </mxCell>
        <mxCell id="GyiRECZgV6PWUkBDIfNX-1" value="created_at" style="ellipse;whiteSpace=wrap;html=1;" vertex="1" parent="1">
          <mxGeometry x="408.5" y="1354" width="70" height="30" as="geometry" />
        </mxCell>
      </root>
    </mxGraphModel>
  </diagram>
</mxfile>
